<svg width="33" height="33" viewBox="0 0 33 33" fill="none" xmlns="http://www.w3.org/2000/svg">
<path d="M15.9564 22.0605H17.2897V16.7272H22.623V15.3939H17.2897V10.0605H15.9564V15.3939H10.623V16.7272H15.9564V22.0605ZM16.6274 28.0605C14.968 28.0605 13.4079 27.7457 11.947 27.1159C10.4864 26.4861 9.21571 25.6314 8.13505 24.5519C7.05438 23.4723 6.19894 22.2028 5.56871 20.7432C4.93827 19.2839 4.62305 17.7244 4.62305 16.0649C4.62305 14.4055 4.93794 12.8454 5.56771 11.3845C6.19749 9.92388 7.05216 8.65321 8.13171 7.57255C9.21127 6.49188 10.4808 5.63644 11.9404 5.00621C13.3997 4.37577 14.9592 4.06055 16.6187 4.06055C18.278 4.06055 19.8382 4.37544 21.299 5.00521C22.7597 5.63499 24.0304 6.48966 25.111 7.56921C26.1917 8.64877 27.0472 9.91833 27.6774 11.3779C28.3078 12.8372 28.623 14.3967 28.623 16.0562C28.623 17.7155 28.3082 19.2757 27.6784 20.7365C27.0486 22.1972 26.1939 23.4679 25.1144 24.5485C24.0348 25.6292 22.7653 26.4847 21.3057 27.1149C19.8464 27.7453 18.2869 28.0605 16.6274 28.0605ZM16.623 26.7272C19.6008 26.7272 22.123 25.6939 24.1897 23.6272C26.2564 21.5605 27.2897 19.0383 27.2897 16.0605C27.2897 13.0828 26.2564 10.5605 24.1897 8.49388C22.123 6.42721 19.6008 5.39388 16.623 5.39388C13.6453 5.39388 11.123 6.42721 9.05638 8.49388C6.98971 10.5605 5.95638 13.0828 5.95638 16.0605C5.95638 19.0383 6.98971 21.5605 9.05638 23.6272C11.123 25.6939 13.6453 26.7272 16.623 26.7272Z" fill="white"/>
</svg>
