<svg width="109" height="29" viewBox="0 0 109 29" fill="none" xmlns="http://www.w3.org/2000/svg">
<path d="M88.2834 8.47604L88.084 7.82256H88.05C87.8237 8.10828 87.596 8.30348 87.3668 8.40815C87.1377 8.50999 86.8435 8.56091 86.4842 8.56091C86.0231 8.56091 85.6624 8.43644 85.4022 8.18749C85.1447 7.93855 85.016 7.58635 85.016 7.13089C85.016 6.64715 85.1956 6.28222 85.5549 6.0361C85.9142 5.78999 86.4616 5.65561 87.1971 5.63298L88.0076 5.60752V5.35716C88.0076 5.0573 87.9369 4.83382 87.7954 4.68671C87.6568 4.53678 87.4404 4.46181 87.1462 4.46181C86.9057 4.46181 86.6752 4.49718 86.4545 4.5679C86.2339 4.63862 86.0217 4.72207 85.818 4.81826L85.4955 4.10537C85.7501 3.97241 86.0288 3.87199 86.3315 3.80409C86.6342 3.73337 86.9199 3.69801 87.1886 3.69801C87.7855 3.69801 88.2353 3.82814 88.538 4.0884C88.8435 4.34866 88.9963 4.75744 88.9963 5.31473V8.47604H88.2834ZM86.7982 7.7971C87.1603 7.7971 87.4503 7.69668 87.6681 7.49582C87.8888 7.29214 87.9991 7.00783 87.9991 6.64291V6.23554L87.3965 6.261C86.9269 6.27798 86.5846 6.35718 86.3696 6.49863C86.1575 6.63725 86.0514 6.85083 86.0514 7.13938C86.0514 7.34872 86.1136 7.51138 86.2381 7.62737C86.3626 7.74052 86.5493 7.7971 86.7982 7.7971Z" fill="white"/>
<path d="M84.0256 8.47601H82.9987V5.59033C82.9987 5.2282 82.9233 4.95803 82.7725 4.77979C82.6246 4.60156 82.3881 4.51244 82.0633 4.51244C81.6311 4.51244 81.3149 4.63692 81.1147 4.88588C80.9146 5.13484 80.8145 5.55214 80.8145 6.13776V8.47601H79.792V3.78254H80.5926L80.7362 4.39786H80.7884C80.9334 4.17437 81.1394 4.00179 81.4062 3.88014C81.6731 3.75849 81.969 3.69766 82.2939 3.69766C83.4484 3.69766 84.0256 4.27055 84.0256 5.41634V8.47601Z" fill="white"/>
<path d="M76.189 8.47602H75.1665V1.8729H76.189V8.47602Z" fill="white"/>
<path d="M72.223 8.56088C71.4746 8.56088 70.8886 8.3487 70.4651 7.92433C70.0445 7.49714 69.8342 6.9101 69.8342 6.16322C69.8342 5.39653 70.03 4.79394 70.4216 4.35543C70.8132 3.91692 71.3513 3.69766 72.0359 3.69766C72.6711 3.69766 73.173 3.8858 73.5414 4.26207C73.9098 4.63834 74.0939 5.15606 74.0939 5.81524V6.35418H70.8872C70.9017 6.80967 71.0279 7.16048 71.2657 7.40661C71.5036 7.64991 71.8386 7.77156 72.2708 7.77156C72.5551 7.77156 72.8191 7.7461 73.0627 7.69518C73.3093 7.64142 73.5733 7.55372 73.8546 7.43207V8.24261C73.6052 8.3586 73.3528 8.44064 73.0975 8.48874C72.8423 8.53683 72.5508 8.56088 72.223 8.56088ZM72.0359 4.45303C71.711 4.45303 71.4499 4.55346 71.2527 4.75433C71.0583 4.95519 70.9423 5.24801 70.9046 5.63276H73.0888C73.083 5.24518 72.9873 4.95237 72.8017 4.75433C72.616 4.55346 72.3608 4.45303 72.0359 4.45303Z" fill="white"/>
<path d="M66.5381 8.47605L64.7106 3.78257H65.7897L66.7687 6.51124C66.9369 6.96955 67.0384 7.34017 67.0732 7.62308H67.108C67.1342 7.41938 67.2357 7.04877 67.4126 6.51124L68.3916 3.78257H69.4794L67.6432 8.47605H66.5381Z" fill="white"/>
<path d="M64.0645 8.47603H63.0419V3.78256H64.0645V8.47603ZM62.9897 3.20967V3.10357C63.1551 2.90554 63.3248 2.68487 63.4988 2.44157C63.6758 2.19826 63.815 1.99032 63.9165 1.81775H65.1044V1.90687C64.9535 2.07944 64.7273 2.30294 64.4256 2.57736C64.1268 2.84896 63.8745 3.05972 63.6685 3.20967H62.9897Z" fill="white"/>
<path d="M61.7083 8.47601H60.6814V5.59033C60.6814 5.2282 60.606 4.95802 60.4551 4.77979C60.3072 4.60156 60.0708 4.51244 59.7459 4.51244C59.3137 4.51244 58.9975 4.63692 58.7974 4.88588C58.5972 5.13484 58.4971 5.55213 58.4971 6.13776V8.47601H57.4746V3.78253H58.2752L58.4188 4.39786H58.471C58.6161 4.17436 58.822 4.00179 59.0889 3.88014C59.3558 3.75849 59.6516 3.69766 59.9765 3.69766C61.131 3.69766 61.7083 4.27055 61.7083 5.41634V8.47601Z" fill="white"/>
<path d="M56.3846 6.12078C56.3846 6.88747 56.183 7.48582 55.7798 7.91585C55.3766 8.34587 54.8153 8.56088 54.0959 8.56088C53.6463 8.56088 53.2489 8.46186 52.9037 8.26382C52.5585 8.06579 52.2931 7.78146 52.1074 7.41085C51.9218 7.04024 51.829 6.61022 51.829 6.12078C51.829 5.35976 52.0291 4.76565 52.4294 4.33845C52.8297 3.91126 53.3939 3.69766 54.122 3.69766C54.8182 3.69766 55.3693 3.91692 55.7754 4.35543C56.1815 4.79111 56.3846 5.37956 56.3846 6.12078ZM52.8819 6.12078C52.8819 7.20433 53.2924 7.7461 54.1133 7.7461C54.9255 7.7461 55.3316 7.20433 55.3316 6.12078C55.3316 5.04855 54.9226 4.51244 54.1046 4.51244C53.6753 4.51244 53.3635 4.65107 53.1691 4.92832C52.9777 5.20557 52.8819 5.60306 52.8819 6.12078Z" fill="white"/>
<path d="M49.0943 8.56088C48.4851 8.56088 48.0123 8.34728 47.6758 7.92009H47.6149C47.6555 8.31616 47.6758 8.55664 47.6758 8.64151V10.5639H46.6533V3.78253H47.48C47.5032 3.87024 47.5511 4.07959 47.6236 4.41059H47.6758C47.9949 3.9353 48.4735 3.69766 49.1117 3.69766C49.7121 3.69766 50.1791 3.90984 50.5127 4.33421C50.8492 4.75857 51.0175 5.3541 51.0175 6.12078C51.0175 6.88747 50.8463 7.48582 50.504 7.91585C50.1646 8.34587 49.6947 8.56088 49.0943 8.56088ZM48.8463 4.51244C48.4402 4.51244 48.1428 4.62843 47.9543 4.86042C47.7686 5.09241 47.6758 5.46302 47.6758 5.97226V6.12078C47.6758 6.69226 47.7686 7.10673 47.9543 7.36417C48.1399 7.61879 48.4431 7.7461 48.8637 7.7461C49.2176 7.7461 49.4902 7.60465 49.6817 7.32174C49.8731 7.03883 49.9688 6.63568 49.9688 6.1123C49.9688 5.58608 49.8731 5.1886 49.6817 4.91983C49.4931 4.64824 49.2147 4.51244 48.8463 4.51244Z" fill="white"/>
<path d="M45.6327 7.13926C45.6327 7.59757 45.4615 7.9498 45.1192 8.19593C44.777 8.43923 44.2867 8.56088 43.6486 8.56088C43.0075 8.56088 42.4926 8.46611 42.1039 8.27656V7.4151C42.6696 7.66971 43.1961 7.79702 43.6834 7.79702C44.3128 7.79702 44.6276 7.61172 44.6276 7.24111C44.6276 7.12228 44.5928 7.02327 44.5231 6.94405C44.4535 6.86484 44.339 6.78279 44.1794 6.69792C44.0199 6.61305 43.798 6.51686 43.5137 6.40935C42.9597 6.2 42.584 5.99064 42.3868 5.78129C42.1924 5.57194 42.0952 5.30034 42.0952 4.96651C42.0952 4.56478 42.2606 4.25358 42.5913 4.03291C42.9248 3.80941 43.3774 3.69766 43.9488 3.69766C44.5144 3.69766 45.0496 3.80941 45.5544 4.03291L45.2237 4.78403C44.7044 4.57468 44.2679 4.47 43.914 4.47C43.3745 4.47 43.1047 4.61995 43.1047 4.91983C43.1047 5.06694 43.1743 5.19142 43.3135 5.29327C43.4557 5.39512 43.7632 5.53516 44.236 5.71339C44.6334 5.86334 44.922 6.00055 45.1018 6.12503C45.2817 6.24951 45.4151 6.39379 45.5021 6.55788C45.5892 6.71914 45.6327 6.91293 45.6327 7.13926Z" fill="white"/>
<path d="M41.0228 8.47604H40.0003V3.78257H41.0228V8.47604ZM39.9394 2.53918C39.9394 2.36094 39.9887 2.22373 40.0873 2.12754C40.1889 2.03135 40.3324 1.98326 40.5181 1.98326C40.6979 1.98326 40.8372 2.03135 40.9358 2.12754C41.0373 2.22373 41.0881 2.36094 41.0881 2.53918C41.0881 2.70892 41.0373 2.84331 40.9358 2.94232C40.8372 3.03851 40.6979 3.08661 40.5181 3.08661C40.3324 3.08661 40.1889 3.03851 40.0873 2.94232C39.9887 2.84331 39.9394 2.70892 39.9394 2.53918Z" fill="white"/>
<path d="M38.8275 5.31449C38.8275 6.33862 38.536 7.12228 37.9529 7.66547C37.3699 8.20583 36.5301 8.47601 35.4336 8.47601H33.654V2.27179H35.6207C36.6331 2.27179 37.4206 2.53773 37.9834 3.0696C38.5461 3.60147 38.8275 4.34977 38.8275 5.31449ZM37.731 5.34844C37.731 3.86316 37.0189 3.12052 35.5946 3.12052H34.6939V7.62303H35.4336C36.9652 7.62303 37.731 6.86484 37.731 5.34844Z" fill="white"/>
<path d="M18.0662 13.7712C18.0375 10.6828 20.6702 9.1803 20.7906 9.11035C19.2996 6.99934 16.9886 6.71091 16.1765 6.68791C14.2355 6.48955 12.3528 7.81576 11.3641 7.81576C10.3556 7.81576 8.83303 6.70707 7.19204 6.73965C5.08037 6.77128 3.10488 7.95854 2.02141 9.8022C-0.214588 13.5614 1.45304 19.0857 3.5953 22.1243C4.66692 23.6134 5.91912 25.274 7.55813 25.2156C9.16162 25.1523 9.76059 24.2238 11.6956 24.2238C13.6129 24.2238 14.1754 25.2156 15.8469 25.1782C17.5678 25.1523 18.6513 23.6833 19.6854 22.1818C20.9238 20.477 21.4211 18.7963 21.4409 18.71C21.4014 18.6966 18.0997 17.472 18.0662 13.7712ZM14.9085 4.68901C15.7709 3.64165 16.361 2.21674 16.1972 0.770752C14.949 0.824414 13.3879 1.60922 12.489 2.63358C11.6937 3.53624 10.9832 5.01577 11.1667 6.40714C12.5689 6.50872 14.0086 5.72008 14.9085 4.68901Z" fill="white"/>
<path d="M41.2916 25.0019H39.0507L37.8231 21.2561H33.5564L32.3871 25.0019H30.2053L34.4336 12.2496H37.0446L41.2916 25.0019ZM37.4531 19.6846L36.343 16.3547C36.2256 16.0145 36.0045 15.2134 35.6809 13.9524H35.6414C35.5111 14.4947 35.3029 15.2958 35.0178 16.3547L33.9264 19.6846H37.4531ZM52.144 20.2911C52.144 21.855 51.7069 23.0911 50.8316 23.9986C50.0481 24.8064 49.0742 25.2098 47.9128 25.2098C46.6586 25.2098 45.7567 24.7757 45.209 23.9056V28.7304H43.1053V18.8289C43.1053 17.8467 43.0786 16.8396 43.0273 15.8066H44.8775L44.9949 17.2641H45.0344C45.736 16.1659 46.8007 15.6168 48.2295 15.6168C49.3465 15.6168 50.279 16.0452 51.025 16.9028C51.77 17.7623 52.144 18.8912 52.144 20.2911ZM50.0007 20.3659C50.0007 19.4709 49.7935 18.733 49.3771 18.1514C48.9222 17.5467 48.3114 17.2439 47.5457 17.2439C47.0266 17.2439 46.555 17.4126 46.1336 17.7451C45.7113 18.0805 45.435 18.5184 45.3057 19.0608C45.248 19.2636 45.2152 19.4723 45.208 19.6827V21.2168C45.208 21.8847 45.4192 22.4491 45.8415 22.911C46.2639 23.3709 46.8125 23.6019 47.4875 23.6019C48.2798 23.6019 48.8966 23.3039 49.3376 22.7126C49.7797 22.1195 50.0007 21.3376 50.0007 20.3659ZM63.0349 20.2911C63.0349 21.855 62.5977 23.0911 61.7225 23.9986C60.938 24.8064 59.9651 25.2098 58.8027 25.2098C57.5485 25.2098 56.6466 24.7757 56.0989 23.9056V28.7304H53.9952V18.8289C53.9952 17.8467 53.9685 16.8396 53.9172 15.8066H55.7674L55.8848 17.2641H55.9243C56.6249 16.1659 57.6896 15.6168 59.1194 15.6168C60.2354 15.6168 61.1679 16.0452 61.9159 16.9028C62.6599 17.7623 63.0349 18.8912 63.0349 20.2911ZM60.8906 20.3659C60.8906 19.4709 60.6824 18.733 60.266 18.1514C59.8111 17.5467 59.2023 17.2439 58.4366 17.2439C57.9175 17.2439 57.4459 17.4126 57.0225 17.7451C56.6002 18.0805 56.3249 18.5184 56.1956 19.0608C56.1315 19.3137 56.097 19.5198 56.097 19.6827V21.2168C56.097 21.8847 56.3091 22.4491 56.7295 22.911C57.1518 23.37 57.7005 23.6019 58.3774 23.6019C59.1707 23.6019 59.7875 23.3039 60.2275 22.7126C60.6696 22.1195 60.8906 21.3376 60.8906 20.3659ZM75.2115 21.4248C75.2115 22.5104 74.8208 23.393 74.0442 24.0743C73.1896 24.8179 71.9967 25.1906 70.4672 25.1906C69.0541 25.1906 67.9213 24.9262 67.0668 24.3963L67.5533 22.6935C68.4759 23.2243 69.4893 23.4888 70.5925 23.4888C71.3858 23.4888 72.0026 23.3144 72.4427 22.9685C72.8838 22.6216 73.1068 22.1578 73.1068 21.579C73.1068 21.0606 72.9222 20.6265 72.5601 20.2729C72.196 19.9203 71.5941 19.5916 70.7484 19.2898C68.4492 18.4571 67.2987 17.2391 67.2987 15.637C67.2987 14.5906 67.7052 13.7339 68.5163 13.0641C69.3275 12.3952 70.403 12.0608 71.7411 12.0608C72.9361 12.0608 73.9317 12.263 74.7221 12.6664L74.1942 14.3318C73.4502 13.9409 72.6104 13.7454 71.671 13.7454C70.929 13.7454 70.3468 13.9227 69.9304 14.2753C69.5801 14.5906 69.4025 14.9748 69.4025 15.4309C69.4025 15.934 69.6047 16.3518 70.0073 16.6795C70.3567 16.9814 70.9941 17.3101 71.9157 17.6627C73.0466 18.1054 73.8774 18.6209 74.4093 19.2131C74.9451 19.8053 75.2115 20.5441 75.2115 21.4248ZM82.185 17.3398H79.8661V21.8042C79.8661 22.9397 80.2746 23.5061 81.0936 23.5061C81.4696 23.5061 81.7814 23.4754 82.0281 23.4112L82.0863 24.9626C81.6719 25.113 81.1262 25.1887 80.4502 25.1887C79.6194 25.1887 78.9701 24.9425 78.5014 24.4499C78.0346 23.9574 77.7998 23.1323 77.7998 21.971V17.3359H76.4183V15.8027H77.7998V14.1191L79.8661 13.5135V15.8027H82.185V17.3398ZM92.6269 20.3285C92.6269 21.7419 92.2105 22.9024 91.3796 23.8098C90.5103 24.7441 89.3538 25.2098 87.9121 25.2098C86.5208 25.2098 85.4146 24.7623 84.5897 23.8683C83.7648 22.9723 83.3523 21.8435 83.3523 20.4818C83.3523 19.0569 83.7786 17.8898 84.6282 16.9823C85.4798 16.0739 86.6264 15.6197 88.068 15.6197C89.4574 15.6197 90.5734 16.0682 91.4181 16.9632C92.2253 17.8313 92.6269 18.9525 92.6269 20.3285ZM90.4461 20.3755C90.4461 19.5332 90.2586 18.8107 89.8827 18.206C89.4416 17.4758 88.8101 17.1107 87.9921 17.1107C87.1494 17.1107 86.503 17.4758 86.0629 18.206C85.686 18.8107 85.4985 19.5456 85.4985 20.4138C85.4985 21.2571 85.686 21.9815 86.0629 22.5842C86.5178 23.3144 87.1523 23.6795 87.9743 23.6795C88.7785 23.6795 89.409 23.3067 89.8649 22.566C90.2517 21.947 90.4461 21.2197 90.4461 20.3755ZM99.4681 17.6033C99.2493 17.5649 99.0273 17.546 98.805 17.5467C98.0649 17.5467 97.4926 17.817 97.09 18.3612C96.7407 18.8404 96.565 19.446 96.565 20.1771V25.0019H94.4613V18.7024C94.4631 17.7371 94.4427 16.7719 94.4001 15.8075H96.2325L96.3095 17.5669H96.3677C96.5907 16.9622 96.94 16.4745 97.4196 16.1094C97.8585 15.7904 98.3919 15.6176 98.9402 15.6168C99.1346 15.6168 99.3102 15.6302 99.4661 15.6542L99.4681 17.6033ZM108.877 19.9692C108.882 20.2797 108.856 20.5901 108.8 20.8958H102.489C102.512 21.8042 102.818 22.4999 103.404 22.979C103.936 23.4064 104.624 23.621 105.469 23.621C106.403 23.621 107.256 23.4773 108.022 23.187L108.352 24.6042C107.456 24.9837 106.398 25.1724 105.177 25.1724C103.709 25.1724 102.557 24.7527 101.718 23.9152C100.881 23.0768 100.462 21.9499 100.462 20.5384C100.462 19.1528 100.852 17.9981 101.632 17.0772C102.449 16.094 103.553 15.6025 104.943 15.6025C106.307 15.6025 107.34 16.094 108.042 17.0772C108.598 17.8562 108.877 18.8222 108.877 19.9692ZM106.871 19.4393C106.886 18.8327 106.747 18.3105 106.462 17.8687C106.098 17.2995 105.538 17.0159 104.787 17.0159C104.099 17.0159 103.538 17.2928 103.112 17.8486C102.762 18.2903 102.554 18.8212 102.49 19.4374L106.871 19.4393Z" fill="white"/>
</svg>
