<svg width="32" height="33" viewBox="0 0 32 33" fill="none" xmlns="http://www.w3.org/2000/svg">
<path d="M20.2742 28.1722C20.064 28.3824 19.8234 28.5414 19.5525 28.6492C19.2814 28.7568 19.0109 28.8105 18.7409 28.8105C18.4709 28.8105 18.2033 28.7568 17.9382 28.6492C17.6733 28.5414 17.4358 28.3824 17.2255 28.1722L15.5639 26.5362C15.3537 26.326 15.2003 26.0922 15.1039 25.8349C15.0072 25.5778 14.9563 25.3192 14.9512 25.0592C14.9461 24.7994 14.9935 24.5397 15.0935 24.2799C15.1935 24.0201 15.335 23.7824 15.5179 23.5669L15.8715 23.1722L5.00488 7.63888L9.33322 3.31055L25.7102 19.6875C25.9204 19.8978 26.0794 20.1383 26.1872 20.4092C26.2948 20.6803 26.3486 20.9509 26.3486 21.2209C26.3486 21.4909 26.2948 21.7584 26.1872 22.0235C26.0794 22.2884 25.9204 22.526 25.7102 22.7362L20.2742 28.1722ZM16.7972 22.2209L21.6152 17.4619L9.33322 5.17988L6.72822 7.78488L16.7972 22.2209ZM18.2025 27.2209C18.3734 27.3747 18.57 27.4515 18.7922 27.4515C19.0144 27.4515 19.2024 27.3747 19.3562 27.2209L24.7589 21.8182C24.9127 21.6644 24.9895 21.4764 24.9895 21.2542C24.9895 21.032 24.9127 20.8354 24.7589 20.6645L22.5332 18.3799L16.5075 24.4055C16.3367 24.5764 16.2512 24.7772 16.2512 25.0079C16.2512 25.2388 16.3367 25.4311 16.5075 25.5849L18.2025 27.2209Z" fill="#096C76"/>
</svg>
