<svg width="33" height="33" viewBox="0 0 33 33" fill="none" xmlns="http://www.w3.org/2000/svg">
<path d="M5.95642 29.8346V22.014C5.95642 20.3824 6.53142 18.9916 7.68142 17.8416C8.83142 16.6916 10.2222 16.1166 11.8538 16.1166H13.5718V5.3473C13.5718 4.74797 13.7773 4.23497 14.1884 3.8083C14.5995 3.38141 15.1034 3.16797 15.7001 3.16797H17.5461C18.1428 3.16797 18.6466 3.38141 19.0578 3.8083C19.4689 4.23497 19.6744 4.74797 19.6744 5.3473V16.1166H21.3668C23.0054 16.1166 24.4023 16.6916 25.5574 17.8416C26.7123 18.9916 27.2898 20.3824 27.2898 22.014V29.8346H5.95642ZM7.28975 28.5013H10.9564V23.809C10.9564 23.6201 11.0204 23.4617 11.1484 23.334C11.2764 23.2062 11.435 23.1423 11.6241 23.1423C11.8132 23.1423 11.9714 23.2062 12.0988 23.334C12.2261 23.4617 12.2898 23.6201 12.2898 23.809V28.5013H15.9564V23.809C15.9564 23.6201 16.0204 23.4617 16.1484 23.334C16.2764 23.2062 16.435 23.1423 16.6241 23.1423C16.8132 23.1423 16.9714 23.2062 17.0988 23.334C17.2261 23.4617 17.2898 23.6201 17.2898 23.809V28.5013H20.9564V23.809C20.9564 23.6201 21.0204 23.4617 21.1484 23.334C21.2764 23.2062 21.435 23.1423 21.6241 23.1423C21.8132 23.1423 21.9714 23.2062 22.0988 23.334C22.2261 23.4617 22.2898 23.6201 22.2898 23.809V28.5013H25.9564V22.014C25.9564 20.732 25.5102 19.6509 24.6178 18.7706C23.7253 17.8902 22.6416 17.45 21.3668 17.45H11.8538C10.586 17.45 9.50842 17.8937 8.62109 18.7813C7.73353 19.6686 7.28975 20.7462 7.28975 22.014V28.5013ZM18.3411 16.1166V5.3473C18.3411 5.10819 18.2642 4.90741 18.1104 4.74497C17.9564 4.58252 17.7683 4.5013 17.5461 4.5013H15.7001C15.4779 4.5013 15.2898 4.58252 15.1358 4.74497C14.982 4.90741 14.9051 5.10819 14.9051 5.3473V16.1166H18.3411Z" fill="#096C76"/>
</svg>
