<svg width="33" height="33" viewBox="0 0 33 33" fill="none" xmlns="http://www.w3.org/2000/svg">
<path d="M4.62305 27.1678V25.8345H7.28971V5.83447H25.9564V25.8345H28.623V27.1678H4.62305ZM8.62305 25.8345H14.5307C14.3529 24.108 13.782 22.3819 12.818 20.6561C11.8538 18.9306 10.4555 17.8259 8.62305 17.3421V25.8345ZM8.62305 7.16781V15.6601C10.4555 15.1764 11.8538 14.0717 12.818 12.3461C13.782 10.6204 14.3529 8.89425 14.5307 7.16781H8.62305ZM10.1024 16.5011C11.8699 17.2618 13.2333 18.543 14.1924 20.3448C15.1513 22.1464 15.717 23.9763 15.8897 25.8345H17.3564C17.529 23.9763 18.0948 22.1464 19.0537 20.3448C20.0128 18.543 21.3762 17.2618 23.1437 16.5011C21.359 15.7405 19.9872 14.4593 19.028 12.6575C18.0692 10.8559 17.5034 9.02603 17.3307 7.16781H15.8897C15.717 9.02603 15.1513 10.8559 14.1924 12.6575C13.2333 14.4593 11.8699 15.7405 10.1024 16.5011ZM24.623 7.16781H18.6897C18.8675 8.89425 19.4384 10.6204 20.4024 12.3461C21.3666 14.0717 22.7735 15.1764 24.623 15.6601V7.16781ZM24.623 25.8345V17.3421C22.7735 17.8259 21.3722 18.9306 20.419 20.6561C19.4662 22.3819 18.9008 24.108 18.723 25.8345H24.623Z" fill="#096C76"/>
</svg>
