<svg width="49" height="48" viewBox="0 0 49 48" fill="none" xmlns="http://www.w3.org/2000/svg">
<path d="M4.9637 26.869C4.21003 25.618 3.64087 24.3437 3.2562 23.046C2.87153 21.7487 2.6792 20.4667 2.6792 19.2C2.6792 16.082 3.76637 13.4358 5.9407 11.2615C8.11503 9.08717 10.7612 8 13.8792 8C15.9022 8 17.8445 8.525 19.7062 9.575C21.5675 10.625 23.2252 12.1385 24.6792 14.1155C26.1332 12.1385 27.7909 10.625 29.6522 9.575C31.5139 8.525 33.4562 8 35.4792 8C38.5972 8 41.2434 9.08717 43.4177 11.2615C45.592 13.4358 46.6792 16.082 46.6792 19.2C46.6792 20.4153 46.4869 21.659 46.1022 22.931C45.7175 24.2027 45.1484 25.5027 44.3947 26.831C44.186 26.5553 43.9397 26.3088 43.6557 26.0915C43.3714 25.8742 43.0754 25.6923 42.7677 25.546C43.401 24.4203 43.8779 23.3307 44.1982 22.277C44.5189 21.223 44.6792 20.1973 44.6792 19.2C44.6792 16.6257 43.7895 14.4487 42.0102 12.669C40.2305 10.8897 38.0535 10 35.4792 10C33.4202 10 31.5504 10.6198 29.8697 11.8595C28.1887 13.0992 26.4585 14.8793 24.6792 17.2C22.8999 14.8717 21.1697 13.0897 19.4887 11.854C17.808 10.618 15.9382 10 13.8792 10C11.3049 10 9.12787 10.8897 7.3482 12.669C5.56887 14.4487 4.6792 16.6257 4.6792 19.2C4.6792 20.2487 4.83953 21.3063 5.1602 22.373C5.48053 23.4397 5.94453 24.5102 6.5522 25.5845C6.24453 25.7565 5.95603 25.945 5.6867 26.15C5.4177 26.355 5.1767 26.5947 4.9637 26.869ZM2.6792 42.077V40.35C2.6792 39.114 3.33187 38.0928 4.6372 37.2865C5.94253 36.4802 7.63637 36.077 9.7187 36.077C10.1 36.077 10.465 36.0917 10.8137 36.121C11.1624 36.1507 11.4945 36.1988 11.8102 36.2655C11.5229 36.7782 11.301 37.3167 11.1447 37.881C10.9884 38.4453 10.9102 39.0465 10.9102 39.6845V42.077H2.6792ZM14.6792 42.077V39.827C14.6792 38.173 15.6039 36.8588 17.4532 35.8845C19.3022 34.9102 21.7144 34.423 24.6897 34.423C27.693 34.423 30.1087 34.9102 31.9367 35.8845C33.765 36.8588 34.6792 38.173 34.6792 39.827V42.077H14.6792ZM38.4482 42.077V39.6845C38.4482 39.0465 38.3784 38.4453 38.2387 37.881C38.099 37.3167 37.8895 36.7782 37.6102 36.2655C37.9255 36.1988 38.258 36.1507 38.6077 36.121C38.9574 36.0917 39.3145 36.077 39.6792 36.077C41.7792 36.077 43.4709 36.4802 44.7542 37.2865C46.0375 38.0928 46.6792 39.114 46.6792 40.35V42.077H38.4482ZM24.6747 36.423C22.4187 36.423 20.5472 36.7243 19.0602 37.327C17.5729 37.9297 16.7984 38.7053 16.7367 39.654V40.077H32.6332V39.654C32.5639 38.7053 31.7939 37.9297 30.3232 37.327C28.8529 36.7243 26.97 36.423 24.6747 36.423ZM9.7177 34.1925C8.93503 34.1925 8.26503 33.9137 7.7077 33.356C7.15037 32.7987 6.8717 32.1287 6.8717 31.346C6.8717 30.5717 7.15037 29.9102 7.7077 29.3615C8.26503 28.8128 8.93503 28.5385 9.7177 28.5385C10.492 28.5385 11.16 28.8128 11.7217 29.3615C12.283 29.9102 12.5637 30.5717 12.5637 31.346C12.5637 32.1287 12.283 32.7987 11.7217 33.356C11.16 33.9137 10.492 34.1925 9.7177 34.1925ZM39.6792 34.1925C38.9125 34.1925 38.2465 33.9137 37.6812 33.356C37.1159 32.7987 36.8332 32.1287 36.8332 31.346C36.8332 30.5717 37.1159 29.9102 37.6812 29.3615C38.2465 28.8128 38.915 28.5385 39.6867 28.5385C40.4817 28.5385 41.1535 28.8128 41.7022 29.3615C42.2509 29.9102 42.5252 30.5717 42.5252 31.346C42.5252 32.1287 42.2525 32.7987 41.7072 33.356C41.1615 33.9137 40.4855 34.1925 39.6792 34.1925ZM24.6927 32.923C23.4787 32.923 22.4422 32.4967 21.5832 31.644C20.7242 30.7917 20.2947 29.7565 20.2947 28.5385C20.2947 27.2962 20.7209 26.2548 21.5732 25.4145C22.4259 24.5742 23.4612 24.154 24.6792 24.154C25.9215 24.154 26.9629 24.5728 27.8032 25.4105C28.6435 26.2482 29.0637 27.2863 29.0637 28.525C29.0637 29.739 28.6449 30.7755 27.8072 31.6345C26.9695 32.4935 25.9314 32.923 24.6927 32.923ZM24.6792 26.154C24.0355 26.154 23.4772 26.3825 23.0042 26.8395C22.5312 27.2965 22.2947 27.8628 22.2947 28.5385C22.2947 29.1822 22.5312 29.7405 23.0042 30.2135C23.4772 30.6865 24.0419 30.923 24.6982 30.923C25.3549 30.923 25.9132 30.6865 26.3732 30.2135C26.8335 29.7405 27.0637 29.1757 27.0637 28.519C27.0637 27.8627 26.8352 27.3043 26.3782 26.844C25.9212 26.384 25.3549 26.154 24.6792 26.154Z" fill="#096C76"/>
</svg>
