<svg width="32" height="33" viewBox="0 0 32 33" fill="none" xmlns="http://www.w3.org/2000/svg">
<path d="M23.3337 19.8346V18.5012H26.667C26.8559 18.5012 27.0142 18.5652 27.142 18.6932C27.2698 18.8212 27.3337 18.9798 27.3337 19.1689C27.3337 19.358 27.2698 19.5162 27.142 19.6436C27.0142 19.7709 26.8559 19.8346 26.667 19.8346H23.3337ZM23.3337 25.1679V23.8346H26.667C26.8559 23.8346 27.0142 23.8986 27.142 24.0266C27.2698 24.1546 27.3337 24.3131 27.3337 24.5022C27.3337 24.6913 27.2698 24.8496 27.142 24.9769C27.0142 25.1042 26.8559 25.1679 26.667 25.1679H23.3337ZM19.3337 26.5012C18.6003 26.5012 17.9725 26.2401 17.4503 25.7179C16.9281 25.1957 16.667 24.5679 16.667 23.8346H14.0003V19.8346H16.667C16.667 19.1012 16.9281 18.4734 17.4503 17.9512C17.9725 17.429 18.6003 17.1679 19.3337 17.1679H22.0003V26.5012H19.3337ZM9.33366 22.5012C8.03788 22.5012 6.93621 22.0473 6.02866 21.1396C5.12088 20.232 4.66699 19.1303 4.66699 17.8346C4.66699 16.5388 5.12088 15.4371 6.02866 14.5296C6.93621 13.6218 8.03788 13.1679 9.33366 13.1679H11.3337C12.0601 13.1679 12.6862 12.9051 13.212 12.3796C13.7375 11.8538 14.0003 11.2277 14.0003 10.5012C14.0003 9.77478 13.7375 9.14867 13.212 8.62289C12.6862 8.09733 12.0601 7.83455 11.3337 7.83455H6.66699C6.4781 7.83455 6.31977 7.77055 6.19199 7.64255C6.06421 7.51455 6.00033 7.356 6.00033 7.16689C6.00033 6.97778 6.06421 6.81955 6.19199 6.69222C6.31977 6.56489 6.4781 6.50122 6.66699 6.50122H11.3337C12.4517 6.50122 13.3978 6.88844 14.172 7.66289C14.9464 8.43711 15.3337 9.38322 15.3337 10.5012C15.3337 11.6192 14.9464 12.5653 14.172 13.3396C13.3978 14.114 12.4517 14.5012 11.3337 14.5012H9.33366C8.41699 14.5012 7.63233 14.8281 6.97966 15.4819C6.32677 16.1357 6.00033 16.9216 6.00033 17.8396C6.00033 18.7576 6.32677 19.5418 6.97966 20.1922C7.63233 20.8427 8.41699 21.1679 9.33366 21.1679H12.667V22.5012H9.33366Z" fill="#096C76"/>
</svg>
