<svg width="23" height="23" viewBox="0 0 23 23" fill="none" xmlns="http://www.w3.org/2000/svg">
<path d="M4.53971 19.1681C4.03555 19.1681 3.60395 18.9886 3.24492 18.6296C2.88589 18.2706 2.70638 17.839 2.70638 17.3348V6.3348C2.70638 5.83063 2.88589 5.39903 3.24492 5.04001C3.60395 4.68098 4.03555 4.50146 4.53971 4.50146H19.2064C19.7105 4.50146 20.1421 4.68098 20.5012 5.04001C20.8602 5.39903 21.0397 5.83063 21.0397 6.3348V17.3348C21.0397 17.839 20.8602 18.2706 20.5012 18.6296C20.1421 18.9886 19.7105 19.1681 19.2064 19.1681H4.53971ZM11.873 12.7515L4.53971 8.16813V17.3348H19.2064V8.16813L11.873 12.7515ZM11.873 10.9181L19.2064 6.3348H4.53971L11.873 10.9181ZM4.53971 8.16813V6.3348V17.3348V8.16813Z" fill="#D9D9D9"/>
</svg>
