<svg width="43" height="42" viewBox="0 0 43 42" fill="none" xmlns="http://www.w3.org/2000/svg">
<path d="M8.88916 33.4519V30.5714C8.88916 29.8107 9.09216 29.1309 9.49816 28.5318C9.90416 27.9327 10.4774 27.4481 11.218 27.078C12.6381 26.3646 14.2141 25.7903 15.946 25.3551C17.6782 24.9196 19.4093 24.7019 21.1392 24.7019C22.8687 24.7019 24.5996 24.9196 26.3318 25.3551C28.0638 25.7903 29.6398 26.3646 31.0599 27.078C31.8005 27.4481 32.3737 27.9327 32.7797 28.5318C33.186 29.1309 33.3892 29.8107 33.3892 30.5714V33.4519H8.88916ZM10.6392 31.7019H31.6392V30.5714C31.6392 30.0934 31.5028 29.7006 31.2301 29.3932C30.9574 29.0858 30.6226 28.8256 30.2256 28.6127C29.1307 28.0428 27.7593 27.5403 26.1113 27.1051C24.4634 26.6696 22.806 26.4519 21.1392 26.4519C19.472 26.4519 17.8145 26.6696 16.1665 27.1051C14.5186 27.5403 13.1472 28.0428 12.0523 28.6127C11.6553 28.8256 11.3205 29.0858 11.0478 29.3932C10.7754 29.7006 10.6392 30.0934 10.6392 30.5714V31.7019ZM21.1392 20.7981C19.6403 20.7981 18.3905 20.2977 17.3898 19.297C16.3894 18.2966 15.8892 16.9797 15.8892 15.3464H15.5186C15.3235 15.3464 15.1626 15.283 15.036 15.1561C14.9092 15.0292 14.8457 14.8682 14.8457 14.6731C14.8457 14.478 14.9092 14.317 15.036 14.1901C15.1626 14.0635 15.3235 14.0002 15.5186 14.0002H15.8892C15.9338 13.1138 16.1199 12.3084 16.4474 11.5839C16.7752 10.8591 17.3071 10.168 18.043 9.5106V11.1731C18.043 11.3682 18.1063 11.5292 18.2328 11.6561C18.3597 11.783 18.5207 11.8464 18.7158 11.8464C18.911 11.8464 19.072 11.783 19.1988 11.6561C19.3257 11.5292 19.3892 11.3682 19.3892 11.1731V8.87797C19.6292 8.79047 19.9006 8.71361 20.2033 8.64741C20.5064 8.5812 20.8183 8.5481 21.1392 8.5481C21.46 8.5481 21.7718 8.5812 22.0745 8.64741C22.3773 8.71361 22.6488 8.79047 22.8892 8.87797V11.1731C22.8892 11.3682 22.9525 11.5292 23.079 11.6561C23.2059 11.783 23.3669 11.8464 23.562 11.8464C23.7572 11.8464 23.9182 11.783 24.045 11.6561C24.1716 11.5292 24.2349 11.3682 24.2349 11.1731V9.5106C24.9932 10.168 25.5306 10.8591 25.8471 11.5839C26.1636 12.3084 26.3442 13.1138 26.3892 14.0002H26.7593C26.9544 14.0002 27.1154 14.0635 27.2423 14.1901C27.3689 14.317 27.4322 14.478 27.4322 14.6731C27.4322 14.8682 27.3689 15.0292 27.2423 15.1561C27.1154 15.283 26.9544 15.3464 26.7593 15.3464H26.3892C26.3892 16.9797 25.8888 18.2966 24.8881 19.297C23.8874 20.2977 22.6377 20.7981 21.1392 20.7981ZM21.1392 19.0481C22.1463 19.0481 22.9813 18.7166 23.6443 18.0537C24.3075 17.3907 24.6392 16.5555 24.6392 15.5481H17.6392C17.6392 16.5555 17.9706 17.3907 18.6336 18.0537C19.2966 18.7166 20.1317 19.0481 21.1392 19.0481Z" fill="#096C76"/>
</svg>
