<svg width="33" height="33" viewBox="0 0 33 33" fill="none" xmlns="http://www.w3.org/2000/svg">
<path d="M3.49219 27.4242V25.2295C3.49219 24.65 3.64685 24.132 3.95619 23.6755C4.26552 23.2191 4.7023 22.8498 5.26652 22.5678C6.34852 22.0243 7.5493 21.5867 8.86885 21.2552C10.1886 20.9234 11.5075 20.7575 12.8255 20.7575C14.1433 20.7575 15.4621 20.9234 16.7819 21.2552C18.1014 21.5867 19.3022 22.0243 20.3842 22.5678C20.9484 22.8498 21.3852 23.2191 21.6945 23.6755C22.0041 24.132 22.1589 24.65 22.1589 25.2295V27.4242H3.49219ZM4.82552 26.0908H20.8255V25.2295C20.8255 24.8653 20.7216 24.5661 20.5139 24.3318C20.3061 24.0976 20.051 23.8994 19.7485 23.7372C18.9143 23.303 17.8694 22.9201 16.6139 22.5885C15.3583 22.2567 14.0955 22.0908 12.8255 22.0908C11.5553 22.0908 10.2924 22.2567 9.03685 22.5885C7.7813 22.9201 6.73641 23.303 5.90219 23.7372C5.59974 23.8994 5.34463 24.0976 5.13685 24.3318C4.9293 24.5661 4.82552 24.8653 4.82552 25.2295V26.0908ZM12.8255 17.7832C11.6835 17.7832 10.7313 17.402 9.96885 16.6395C9.20663 15.8773 8.82552 14.874 8.82552 13.6295H8.54319C8.39452 13.6295 8.27197 13.5812 8.17552 13.4845C8.07885 13.3878 8.03052 13.2652 8.03052 13.1165C8.03052 12.9678 8.07885 12.8452 8.17552 12.7485C8.27197 12.6521 8.39452 12.6038 8.54319 12.6038H8.82552C8.85952 11.9285 9.0013 11.3148 9.25085 10.7628C9.50063 10.2106 9.90585 9.68406 10.4665 9.18317V10.4498C10.4665 10.5985 10.5147 10.7212 10.6112 10.8178C10.7079 10.9145 10.8305 10.9628 10.9792 10.9628C11.1279 10.9628 11.2505 10.9145 11.3472 10.8178C11.4439 10.7212 11.4922 10.5985 11.4922 10.4498V8.70117C11.6751 8.63451 11.8819 8.57595 12.1125 8.52551C12.3434 8.47506 12.5811 8.44984 12.8255 8.44984C13.07 8.44984 13.3075 8.47506 13.5382 8.52551C13.7689 8.57595 13.9757 8.63451 14.1589 8.70117V10.4498C14.1589 10.5985 14.2071 10.7212 14.3035 10.8178C14.4002 10.9145 14.5229 10.9628 14.6715 10.9628C14.8202 10.9628 14.9429 10.9145 15.0395 10.8178C15.136 10.7212 15.1842 10.5985 15.1842 10.4498V9.18317C15.762 9.68406 16.1714 10.2106 16.4125 10.7628C16.6536 11.3148 16.7913 11.9285 16.8255 12.6038H17.1075C17.2562 12.6038 17.3789 12.6521 17.4755 12.7485C17.572 12.8452 17.6202 12.9678 17.6202 13.1165C17.6202 13.2652 17.572 13.3878 17.4755 13.4845C17.3789 13.5812 17.2562 13.6295 17.1075 13.6295H16.8255C16.8255 14.874 16.4443 15.8773 15.6819 16.6395C14.9194 17.402 13.9673 17.7832 12.8255 17.7832ZM12.8255 16.4498C13.5929 16.4498 14.2291 16.1973 14.7342 15.6922C15.2395 15.1871 15.4922 14.5507 15.4922 13.7832H10.1589C10.1589 14.5507 10.4114 15.1871 10.9165 15.6922C11.4216 16.1973 12.058 16.4498 12.8255 16.4498ZM22.8765 20.2962L22.7792 19.3472C22.6116 19.3027 22.4369 19.2314 22.2549 19.1332C22.0729 19.035 21.9177 18.9217 21.7895 18.7935L20.9075 19.1782L20.3945 18.2858L21.1792 17.7218C21.145 17.621 21.1279 17.5286 21.1279 17.4448V16.9038C21.1279 16.8285 21.145 16.7318 21.1792 16.6138L20.3945 16.0498L20.9075 15.1575L21.7895 15.5422C21.9126 15.4191 22.0664 15.3071 22.2509 15.2062C22.4355 15.1055 22.6116 15.033 22.7792 14.9885L22.8765 14.0395H23.9022L23.9999 14.9885C24.1672 15.033 24.3432 15.1055 24.5279 15.2062C24.7125 15.3071 24.8664 15.4191 24.9895 15.5422L25.8715 15.1575L26.3842 16.0498L25.5999 16.6138C25.6339 16.7318 25.6509 16.8285 25.6509 16.9038V17.4448C25.6509 17.5286 25.6339 17.621 25.5999 17.7218L26.3842 18.2858L25.8715 19.1782L24.9895 18.7935C24.8613 18.9217 24.7062 19.035 24.5242 19.1332C24.342 19.2314 24.1672 19.3027 23.9999 19.3472L23.9022 20.2962H22.8765ZM23.3895 18.3728C23.7246 18.3728 24.0092 18.2558 24.2432 18.0218C24.4774 17.7876 24.5945 17.503 24.5945 17.1678C24.5945 16.8327 24.4774 16.5481 24.2432 16.3138C24.0092 16.0798 23.7246 15.9628 23.3895 15.9628C23.0544 15.9628 22.7697 16.0798 22.5355 16.3138C22.3013 16.5481 22.1842 16.8327 22.1842 17.1678C22.1842 17.503 22.3013 17.7876 22.5355 18.0218C22.7697 18.2558 23.0544 18.3728 23.3895 18.3728ZM26.0972 13.0652L25.9842 12.0242C25.7331 11.9746 25.4686 11.8742 25.1909 11.7228C24.9131 11.5717 24.6904 11.3867 24.5229 11.1678L23.5332 11.5832L22.9589 10.5985L23.8355 9.95751C23.7911 9.82928 23.7603 9.69773 23.7432 9.56284C23.7261 9.42773 23.7175 9.29606 23.7175 9.16784C23.7175 9.03962 23.7261 8.90795 23.7432 8.77284C23.7603 8.63795 23.7911 8.5064 23.8355 8.37817L22.9589 7.73717L23.5332 6.75251L24.5229 7.16784C24.6904 6.94895 24.9131 6.76395 25.1909 6.61284C25.4686 6.46151 25.7331 6.36106 25.9842 6.31151L26.0972 5.27051H27.2459L27.3589 6.31151C27.61 6.36106 27.8744 6.46151 28.1522 6.61284C28.43 6.76395 28.6526 6.94895 28.8202 7.16784L29.8099 6.75251L30.3842 7.73717L29.5075 8.37817C29.552 8.5064 29.5827 8.63795 29.5999 8.77284C29.617 8.90795 29.6255 9.03962 29.6255 9.16784C29.6255 9.29606 29.617 9.42773 29.5999 9.56284C29.5827 9.69773 29.552 9.82928 29.5075 9.95751L30.3842 10.5985L29.8099 11.5832L28.8202 11.1678C28.6526 11.3867 28.43 11.5717 28.1522 11.7228C27.8744 11.8742 27.61 11.9746 27.3589 12.0242L27.2459 13.0652H26.0972ZM26.6715 10.9885C27.1895 10.9885 27.6224 10.8145 27.9702 10.4665C28.3182 10.1187 28.4922 9.68584 28.4922 9.16784C28.4922 8.64984 28.3182 8.21695 27.9702 7.86917C27.6224 7.52117 27.1895 7.34717 26.6715 7.34717C26.1535 7.34717 25.7206 7.52117 25.3729 7.86917C25.0249 8.21695 24.8509 8.64984 24.8509 9.16784C24.8509 9.68584 25.0249 10.1187 25.3729 10.4665C25.7206 10.8145 26.1535 10.9885 26.6715 10.9885Z" fill="#096C76"/>
</svg>
