<svg width="34" height="37" viewBox="0 0 34 37" fill="none" xmlns="http://www.w3.org/2000/svg">
<path d="M19.3434 0.734512L19.2061 0.730469L19.1253 0.803167C18.5963 1.304 16.6174 2.88728 14.1013 1.20303L13.2694 2.44299C14.3679 3.17808 15.426 3.45677 16.3831 3.45677C17.7684 3.45677 18.9476 2.87516 19.7392 2.24912C20.5106 2.28547 21.2658 2.38645 21.9968 2.55205C21.2537 3.36388 19.7392 4.70885 17.5301 5.12487C15.2241 5.56511 12.7322 4.86233 10.1314 3.05287L9.27927 4.28072C11.6418 5.91651 13.9519 6.74045 16.1731 6.74045C16.7224 6.74045 17.2676 6.69199 17.8047 6.59101C21.0113 5.98921 22.9579 3.792 23.5597 3.0246C24.2584 3.28309 24.9247 3.5941 25.5628 3.96569C24.4078 5.39952 17.8249 12.5243 6.45226 4.92292L5.62031 6.16691C9.68716 8.8811 13.229 9.8343 16.1974 9.8343C22.3602 9.8343 26.0474 5.73475 26.8067 4.79367C29.9366 7.14031 31.9761 10.8683 31.9761 15.0769V22.5449C31.9761 29.3829 25.1145 34.993 18.3701 35.3808V32.9937H17.623C11.4076 32.9937 6.26649 30.2472 6.26649 22.5449V20.8728H5.51935C3.7343 20.8728 2.28041 19.4188 2.28041 17.6335V17.3306C2.28041 15.5454 3.7343 14.0914 5.51935 14.0914V12.597C2.91043 12.597 0.786133 14.7215 0.786133 17.3306V17.6335C0.786133 19.9923 2.51464 21.9472 4.77221 22.3066V22.5449C4.77221 29.5889 8.58463 34.2135 16.8758 34.476V36.8954H17.623C25.5346 36.8954 33.4704 30.4573 33.4704 22.5449V15.0769C33.4744 7.23321 27.154 0.851642 19.3434 0.734512Z" fill="#4BE1A4"/>
<path d="M20.9534 19.226H19.4672C18.8695 19.226 18.3809 19.7107 18.3809 20.3084V22.7924C17.3591 23.4427 15.2267 24.2222 12.1816 22.3562C13.7284 27.0172 17.7468 25.6116 18.809 25.1431C18.9826 25.0663 19.1603 25.0663 19.334 25.1431C20.3961 25.6116 24.4145 27.0172 25.9613 22.3562C23.0293 24.1495 20.9373 23.4952 19.8751 22.8651V20.7204H20.9534C21.8177 20.7204 22.5729 20.2277 22.9243 19.4401C23.2756 18.6484 23.1343 17.7599 22.5568 17.1177L22.2135 16.738V16.1362C22.2135 15.5223 22.7143 15.0214 23.3281 15.0214C23.942 15.0214 24.4428 15.5223 24.4428 16.1362V16.7865H25.937V16.1362C25.937 14.6983 24.7659 13.527 23.3281 13.527C22.1973 13.527 21.2442 14.254 20.8807 15.2597L19.8671 14.1329V11.241H18.3728V14.2904C18.3728 14.561 18.4737 14.8195 18.6514 15.0174L21.4421 18.1193C21.7086 18.4182 21.5956 18.7454 21.5552 18.8383C21.5188 18.9231 21.3533 19.226 20.9534 19.226Z" fill="#4BE1A4"/>
<path d="M13.1354 13.5227C11.6977 13.5227 10.5225 14.694 10.5225 16.1319V16.7821H12.0167V16.1319C12.0167 15.518 12.5175 15.0171 13.1354 15.0171C13.7493 15.0171 14.2501 15.518 14.2501 16.1319V16.7821H15.7443V16.1319C15.7443 14.694 14.5732 13.5227 13.1354 13.5227Z" fill="#4BE1A4"/>
</svg>
