<svg width="24" height="25" viewBox="0 0 24 25" fill="none" xmlns="http://www.w3.org/2000/svg">
<path d="M13.0438 23.0065V18.0775V13.2226L15.6695 12.8466L15.7598 11.9492L13.0438 9.51216V5.62058C13.0438 5.62058 16.8665 5.24459 18.6085 2.26416C18.6085 2.26416 22.0218 4.06724 22.5102 6.78421C22.9986 9.49844 23.0664 15.5746 23.0664 15.5746C23.0664 15.5746 21.9512 20.0342 20.836 20.874C19.7208 21.7138 16.7423 24.3649 13.041 24.1701V23.0065H13.0438Z" fill="#ACE2CC"/>
<path d="M13.7189 0.165131L13.6229 0.162384L13.5665 0.211781C13.1966 0.552089 11.8132 1.62791 10.0543 0.483484L9.47275 1.32601C10.2407 1.8255 10.9804 2.01486 11.6495 2.01486C12.6178 2.01486 13.4422 1.61967 13.9956 1.19429C14.5348 1.21899 15.0628 1.2876 15.5738 1.40012C15.0543 1.95175 13.9956 2.86563 12.4513 3.14831C10.8392 3.44745 9.09725 2.96992 7.27908 1.74042L6.68338 2.57473C8.33498 3.68622 9.94988 4.24608 11.5027 4.24608C11.8866 4.24608 12.2678 4.21314 12.6433 4.14453C14.8849 3.73562 16.2457 2.24265 16.6664 1.72121C17.1548 1.89685 17.6206 2.10818 18.0667 2.36066C17.2593 3.33493 12.6574 8.17608 4.70711 3.01109L4.12552 3.85636C6.96853 5.70061 9.44452 6.3483 11.5196 6.3483C15.8279 6.3483 18.4055 3.56271 18.9363 2.92326C21.1243 4.51777 22.55 7.05087 22.55 9.91055V14.985C22.55 19.6313 17.7533 23.4433 13.0385 23.7067V22.0848H12.5162C8.17123 22.0848 4.57724 20.2186 4.57724 14.985V13.8488H4.05494C2.80706 13.8488 1.7907 12.8608 1.7907 11.6478V11.4419C1.7907 10.2289 2.80706 9.24091 4.05494 9.24091V8.22548C2.23112 8.22548 0.746094 9.66904 0.746094 11.4419V11.6478C0.746094 13.2505 1.95444 14.5788 3.53264 14.8231V14.985C3.53264 19.7712 6.19778 22.9136 11.9939 23.092V24.7359H12.5162C18.047 24.7359 23.5946 20.3613 23.5946 14.985V9.91055C23.5975 4.5809 19.1791 0.244719 13.7189 0.165131Z" fill="#096C76"/>
<path d="M14.8469 12.7294H13.808C13.3901 12.7294 13.0485 13.0587 13.0485 13.4649V15.1527C12.3342 15.5945 10.8436 16.1242 8.71484 14.8563C9.79615 18.0233 12.6053 17.0683 13.3478 16.7499C13.4692 16.6978 13.5934 16.6978 13.7148 16.7499C14.4573 17.0683 17.2665 18.0233 18.3478 14.8563C16.2981 16.0748 14.8356 15.6302 14.0931 15.2021V13.7448H14.8469C15.4511 13.7448 15.9791 13.41 16.2247 12.8748C16.4703 12.3369 16.3715 11.7331 15.9678 11.2968L15.7278 11.0388V10.6299C15.7278 10.2127 16.0779 9.87242 16.507 9.87242C16.9361 9.87242 17.2862 10.2127 17.2862 10.6299V11.0717H18.3308V10.6299C18.3308 9.65287 17.5121 8.85698 16.507 8.85698C15.7165 8.85698 15.0502 9.35098 14.7961 10.0343L14.0875 9.26864V7.30365H13.0429V9.37568C13.0429 9.55956 13.1135 9.73519 13.2377 9.86967L15.1885 11.9774C15.3749 12.1805 15.2958 12.4028 15.2676 12.4659C15.2422 12.5235 15.1264 12.7294 14.8469 12.7294Z" fill="#096C76"/>
<path d="M9.36961 8.85504C8.36453 8.85504 7.54297 9.65092 7.54297 10.6279V11.0698H8.58756V10.6279C8.58756 10.2108 8.93765 9.87047 9.36961 9.87047C9.79874 9.87047 10.1488 10.2108 10.1488 10.6279V11.0698H11.1934V10.6279C11.1934 9.65092 10.3747 8.85504 9.36961 8.85504Z" fill="#096C76"/>
</svg>
