<svg width="32" height="33" viewBox="0 0 32 33" fill="none" xmlns="http://www.w3.org/2000/svg">
<path d="M14.6157 28.5011C14.2414 28.5011 13.9257 28.3725 13.6683 28.1151C13.411 27.858 13.2823 27.5422 13.2823 27.1678V20.2191H8.84633C8.23277 20.2191 7.7161 20.0136 7.29633 19.6025C6.87677 19.1914 6.66699 18.6875 6.66699 18.0908V9.29614C6.66699 8.34214 7.00977 7.5267 7.69533 6.84981C8.38066 6.17292 9.20877 5.83447 10.1797 5.83447H25.3337V18.0908C25.3337 18.6875 25.1195 19.1914 24.6913 19.6025C24.2631 20.0136 23.7422 20.2191 23.1287 20.2191H18.6927V27.1678C18.6927 27.5422 18.564 27.858 18.3067 28.1151C18.0495 28.3725 17.7338 28.5011 17.3593 28.5011H14.6157ZM8.00033 14.4498H24.0003V7.16781H21.821V12.1165H20.4877V7.16781H18.026V9.78314H16.6927V7.16781H10.1797C9.5661 7.16781 9.04944 7.36914 8.62966 7.77181C8.2101 8.17425 8.00033 8.68236 8.00033 9.29614V14.4498ZM8.84633 18.8858H23.1287C23.368 18.8858 23.5731 18.8089 23.744 18.6551C23.9149 18.5011 24.0003 18.313 24.0003 18.0908V15.7831H8.00033V18.0908C8.00033 18.313 8.08155 18.5011 8.24399 18.6551C8.40644 18.8089 8.60721 18.8858 8.84633 18.8858Z" fill="#096C76"/>
</svg>
