<svg width="32" height="33" viewBox="0 0 32 33" fill="none" xmlns="http://www.w3.org/2000/svg">
<path d="M9.83623 25.7061C9.29934 25.7061 8.85912 25.5202 8.51556 25.1484C8.172 24.7767 8.00023 24.3224 8.00023 23.7858V12.8974L5.77189 7.73177H3.28223V6.39844H6.67456L8.72089 11.1678H26.1899C26.6008 11.1678 26.9133 11.3404 27.1276 11.6858C27.3418 12.0311 27.3523 12.3832 27.1592 12.7421L23.9489 19.0471C24.8087 19.1224 25.5279 19.4789 26.1066 20.1164C26.6852 20.7542 26.9746 21.5063 26.9746 22.3728C26.9746 23.2934 26.6539 24.0792 26.0126 24.7301C25.3714 25.3808 24.5917 25.7061 23.6732 25.7061C22.739 25.7061 21.9501 25.3808 21.3066 24.7301C20.663 24.0792 20.3412 23.2934 20.3412 22.3728C20.3412 21.941 20.4139 21.5417 20.5592 21.1748C20.7046 20.8077 20.9113 20.4805 21.1796 20.1934L14.9412 19.6394L11.6079 24.6141C11.4046 24.9217 11.1462 25.1805 10.8329 25.3908C10.5198 25.601 10.1876 25.7061 9.83623 25.7061ZM22.4669 19.0011L25.7669 12.5011H9.28223L10.9932 16.5011C11.1757 16.9455 11.4741 17.3178 11.8886 17.6178C12.3032 17.9178 12.8173 18.0985 13.4309 18.1601L22.4669 19.0011ZM9.84389 24.3394C10.025 24.3394 10.2447 24.1813 10.5029 23.8651L13.4542 19.5011C12.5533 19.39 11.8173 19.1502 11.2462 18.7818C10.6753 18.4136 10.2429 17.9217 9.94889 17.3061L9.33356 15.8704V23.7934C9.33356 23.959 9.37801 24.0914 9.46689 24.1908C9.55578 24.2899 9.68145 24.3394 9.84389 24.3394ZM23.6412 24.3984C24.219 24.3984 24.6968 24.204 25.0746 23.8151C25.4523 23.4262 25.6412 22.954 25.6412 22.3984C25.6412 21.8207 25.4523 21.3429 25.0746 20.9651C24.6968 20.5873 24.219 20.3984 23.6412 20.3984C23.0857 20.3984 22.6134 20.5873 22.2246 20.9651C21.8357 21.3429 21.6412 21.8207 21.6412 22.3984C21.6412 22.954 21.8357 23.4262 22.2246 23.8151C22.6134 24.204 23.0857 24.3984 23.6412 24.3984Z" fill="#096C76"/>
</svg>
