<svg width="174" height="235" viewBox="0 0 174 235" fill="none" xmlns="http://www.w3.org/2000/svg">
<path d="M140.028 12.3454C144.63 12.5541 147.984 16.7146 147.29 21.2029L147.21 21.6381L125.844 122.117C125.085 125.686 121.932 128.216 118.315 128.216L117.963 128.208L74.9172 126.255C70.3156 126.046 66.9613 121.886 67.6556 117.397L67.7354 116.962L89.1011 16.4841C89.8602 12.9144 93.014 10.3839 96.6319 10.3846L96.9833 10.393L140.028 12.3454Z" stroke="#ACE2CC" stroke-width="0.6"/>
<path d="M136.873 12.1945L143.946 12.4282C147.546 12.5472 150.623 15.0585 151.461 18.5623L151.759 19.8062C152.036 20.9662 152.051 22.1735 151.801 23.3399L130.015 125.203C128.996 129.967 124.691 133.304 119.823 133.104L96.6437 132.148L80.8519 131.268L74.2097 130.941C69.2853 130.699 65.7501 126.104 66.7791 121.282L70.0404 106" stroke="#ACE2CC" stroke-width="0.6"/>
<path d="M77.421 71.6472L76.7278 66.2865C76.1446 61.7771 74.4202 57.4912 71.7178 53.8345L71.2861 53.2503C69.7815 51.2143 67.6537 49.7249 65.2256 49.0081V49.0081C61.6705 47.9585 58.2869 51.3525 59.0291 54.9843C60.6639 62.9842 61.5246 72.3777 60.395 79.5903C59.4938 85.3438 54.9827 94.9777 52.79 105.938C51.1572 114.1 50.1146 120.914 51.0601 126.815C51.6476 130.481 51.383 134.431 49.1131 137.369C37.8337 151.971 30.5719 160.508 30.5719 160.508" stroke="#ACE2CC" stroke-width="0.6"/>
<path d="M59.6969 58.9377C59.6969 58.9377 60.5437 59.8932 62.0029 59.8932C62.0288 59.8932 62.0546 59.893 62.0803 59.8927C63.3835 59.8788 64.7566 60.7035 64.9199 61.9965L65.3671 65.5384C65.4836 66.4613 64.9474 67.3605 64.0284 67.5046C63.5704 67.5764 63.0716 67.61 62.6242 67.5423C61.359 67.3508 60.6133 66.7052 60.6133 66.7052" stroke="#ACE2CC" stroke-width="0.6"/>
<path d="M144.29 57.2948L161.047 48.1566C165.19 45.8976 170.335 48.3011 171.261 52.9275V52.9275C171.854 55.8936 170.475 58.9054 167.841 60.3938L140.363 75.9226" stroke="#ACE2CC" stroke-width="0.6"/>
<path d="M108.088 21.6031L122.998 22.0415" stroke="#ACE2CC" stroke-width="0.6"/>
<path d="M81.1357 83.8278L120.021 85.0172C121.037 85.0485 121.782 85.9524 121.654 86.9323L121.617 87.1285L120.856 90.1725C120.662 90.9478 119.954 91.483 119.155 91.4586L80.2705 90.2692C79.2544 90.2379 78.5083 89.3338 78.6357 88.3541L78.6738 88.1569L79.4346 85.1139C79.6165 84.3868 80.2503 83.8702 80.9873 83.8287L81.1357 83.8278Z" stroke="#ACE2CC" stroke-width="0.6"/>
<path d="M78.5012 96.1002L119.139 97.2945C120.156 97.3244 120.903 98.2289 120.776 99.2096L120.739 99.4059L119.978 102.449C119.784 103.223 119.077 103.758 118.279 103.735L77.6409 102.541C76.6238 102.511 75.8766 101.606 76.0042 100.626L76.0413 100.428L76.802 97.3863C76.9837 96.6601 77.6167 96.1446 78.3528 96.1021L78.5012 96.1002Z" stroke="#ACE2CC" stroke-width="0.6"/>
<path d="M72.2348 195.571C76.6178 186.428 86.0943 161.573 89.0986 157.299C92.1029 153.025 109.359 155.025 119.85 132.881" stroke="#ACE2CC" stroke-width="0.6"/>
<path d="M127.818 112.988L142.56 107.752C145.52 106.7 147.451 103.845 147.325 100.706C147.129 95.8144 142.196 92.5543 137.618 94.2905L122.991 99.8379C120.172 100.907 118.353 103.658 118.475 106.67C118.665 111.386 123.37 114.567 127.818 112.988Z" fill="#096C76" stroke="#ACE2CC" stroke-width="0.6"/>
<path d="M120.078 100.909L144.406 91.7292C147.289 90.6414 149.151 87.8295 149.027 84.751C148.829 79.8302 143.833 76.5781 139.253 78.3893L115.072 87.9514C112.326 89.0373 110.566 91.7406 110.685 94.691C110.876 99.4244 115.645 102.582 120.078 100.909Z" fill="#096C76" stroke="#ACE2CC" stroke-width="0.6"/>
<path d="M135.768 122.983L143.399 120.944C145.727 120.322 147.494 118.423 147.945 116.056C148.85 111.314 144.286 107.369 139.724 108.95L132.261 111.537C130.304 112.215 128.836 113.857 128.379 115.877C127.387 120.27 131.416 124.145 135.768 122.983Z" fill="#096C76" stroke="#ACE2CC" stroke-width="0.6"/>
<path d="M111.218 91.7534L114.464 90.551C116.905 89.6467 119.627 90.8056 120.668 93.1918V93.1918C121.742 95.6569 120.633 98.5278 118.18 99.6298L115.302 100.923" stroke="#ACE2CC" stroke-width="0.6"/>
<path d="M118.933 104.182L121.817 103.091C124.274 102.161 127.027 103.322 128.077 105.729V105.729C129.145 108.179 128.065 111.033 125.644 112.163L123.494 113.165" stroke="#ACE2CC" stroke-width="0.6"/>
<path d="M128.545 115.333L130.967 114.369C133.028 113.549 135.367 114.52 136.241 116.559V116.559C137.102 118.568 136.232 120.899 134.266 121.853L132.252 122.83" stroke="#ACE2CC" stroke-width="0.6"/>
<path d="M71.3575 154.003C73.8596 155.844 80.5577 157.084 87.3911 156.214" stroke="#ACE2CC" stroke-width="0.6"/>
<path d="M62.5162 147.876C57.7856 144.024 54.9193 138.686 53.5318 135.163" stroke="#ACE2CC" stroke-width="0.6"/>
<path d="M84.0403 162.153C82.3229 163.45 77.6416 163.956 74.6831 161.542" stroke="#ACE2CC" stroke-width="0.6"/>
<path d="M80.8057 166.359C79.0344 167.118 76.757 166.739 74.4267 165.479" stroke="#ACE2CC" stroke-width="0.6"/>
<path d="M91.2192 37.2926L130.14 38.9537C131.148 38.9967 131.882 39.8963 131.754 40.8688L131.717 41.0641L130.954 44.1178C130.758 44.9007 130.038 45.4383 129.232 45.4039L90.311 43.7428C89.3031 43.6998 88.5696 42.8002 88.6968 41.8278L88.7339 41.6324L89.4976 38.5787C89.6812 37.8448 90.3248 37.3263 91.0688 37.2926H91.2192Z" stroke="#ACE2CC" stroke-width="0.6"/>
<path d="M90.56 114.766L103.359 115.187C105.22 115.248 106.567 116.958 106.226 118.76L106.188 118.934C105.844 120.314 104.582 121.268 103.16 121.221L90.3617 120.8C88.5008 120.739 87.1534 119.03 87.4936 117.228L87.5326 117.053C87.8554 115.759 88.9838 114.84 90.2953 114.769L90.56 114.766Z" stroke="#ACE2CC" stroke-width="0.6"/>
<path d="M84.8017 58.9263L133.479 60.68" stroke="#ACE2CC" stroke-width="0.6"/>
<path d="M83.9234 63.3087L132.601 65.0623" stroke="#ACE2CC" stroke-width="0.6"/>
<path d="M83.0488 67.6935L114.185 68.5703" stroke="#ACE2CC" stroke-width="0.6"/>
<path d="M88.7503 48.3363L104.412 49.056C105.158 49.0904 105.711 49.7397 105.648 50.4642L105.627 50.6097L105.385 51.8197C105.259 52.4491 104.692 52.892 104.051 52.8626L88.389 52.1439C87.6433 52.1096 87.09 51.4601 87.1527 50.7357L87.1732 50.5902L87.4154 49.3802C87.5335 48.7897 88.0397 48.3628 88.6312 48.3363H88.7503Z" stroke="#ACE2CC" stroke-width="0.6"/>
<path d="M30.31 153.038C23.6393 149.715 6.71125 144.982 6.23496 155.107C5.00653 181.223 65.0793 217.972 85.9407 211.401C97.109 207.883 89.2292 193.055 81.0328 186.414" stroke="#ACE2CC" stroke-width="0.6"/>
<path d="M17.768 183.833C13.203 181.478 1.58287 178.052 1.15608 185.025C0.0553265 203.011 41.0978 228.922 55.5388 224.596C63.2699 222.281 57.9837 211.985 52.3996 207.328" stroke="#ACE2CC" stroke-width="0.6"/>
<path d="M50.5148 10.5482C50.6825 9.80467 51.6868 9.75804 51.9591 10.4086L52.0031 10.5482C53.6009 17.6395 59.0168 23.226 66.0089 25.0668L66.6896 25.2328C67.4337 25.4004 67.4805 26.405 66.8292 26.6771L66.6896 26.7221C59.5984 28.3192 54.0117 33.7333 52.1701 40.725L52.0031 41.4057C51.8354 42.1497 50.8307 42.1966 50.5587 41.5453L50.5148 41.4057C48.9169 34.3149 43.5015 28.7291 36.5099 26.8881L35.8283 26.7221C35.0841 26.5545 35.0372 25.5488 35.6886 25.2767L35.8283 25.2328C42.9195 23.6358 48.507 18.2216 50.3488 11.2299L50.5148 10.5482Z" stroke="#ACE2CC" stroke-width="0.6"/>
<path d="M124.737 152.942C124.914 152.155 125.976 152.106 126.264 152.794L126.311 152.942C127.337 157.493 130.812 161.079 135.3 162.261L135.738 162.367C136.524 162.545 136.573 163.607 135.885 163.895L135.738 163.941C131.186 164.966 127.6 168.441 126.417 172.929L126.311 173.366C126.134 174.153 125.071 174.202 124.784 173.514L124.737 173.366C123.711 168.815 120.235 165.23 115.748 164.048L115.31 163.941C114.524 163.763 114.475 162.702 115.163 162.414L115.31 162.367C119.862 161.342 123.448 157.867 124.63 153.379L124.737 152.942Z" stroke="#ACE2CC" stroke-width="0.6"/>
<path d="M36.4368 102.053C40.4644 102.053 43.7297 105.317 43.7297 109.344C43.7296 113.37 40.4643 116.634 36.4368 116.634C32.4091 116.634 29.1439 113.37 29.1438 109.344C29.1438 105.317 32.4091 102.053 36.4368 102.053Z" stroke="#ACE2CC" stroke-width="0.6"/>
<path d="M167.682 35.5514C169.695 35.5516 171.328 37.1838 171.328 39.1969C171.328 41.2101 169.695 42.8431 167.682 42.8434C165.667 42.8434 164.034 41.2103 164.034 39.1969C164.034 37.1837 165.668 35.5514 167.682 35.5514Z" stroke="#ACE2CC" stroke-width="0.6"/>
<ellipse cx="153.012" cy="136.565" rx="5.79218" ry="5.79057" fill="#ACE2CC"/>
<ellipse cx="79.4606" cy="4.49537" rx="2.65982" ry="2.65908" fill="#ACE2CC"/>
</svg>
