<svg width="49" height="48" viewBox="0 0 49 48" fill="none" xmlns="http://www.w3.org/2000/svg">
<path d="M23.9968 39.8845C24.2581 39.8845 24.526 39.8255 24.8003 39.7075C25.0746 39.5898 25.2965 39.4463 25.4658 39.277L41.0583 23.6845C41.5606 23.1822 41.9485 22.6682 42.2218 22.1425C42.4948 21.6168 42.6313 21.0398 42.6313 20.4115C42.6313 19.7755 42.4948 19.1582 42.2218 18.5595C41.9485 17.9608 41.5606 17.414 41.0583 16.919L33.5583 9.41899C33.0633 8.91665 32.555 8.54816 32.0333 8.31349C31.5113 8.07882 30.9325 7.96149 30.2968 7.96149C29.6685 7.96149 29.0851 8.07882 28.5468 8.31349C28.0081 8.54816 27.5005 8.91665 27.0238 9.41899L25.2813 11.1615L28.9813 14.873C29.3786 15.2627 29.6748 15.7063 29.8698 16.204C30.0644 16.7013 30.1618 17.2063 30.1618 17.719C30.1618 18.7603 29.8215 19.6213 29.1408 20.302C28.4601 20.9827 27.5993 21.323 26.5583 21.323C26.0453 21.323 25.5446 21.2448 25.0563 21.0885C24.568 20.9322 24.1288 20.659 23.7388 20.269L19.9118 16.454L11.2773 25.0885C11.075 25.2912 10.9231 25.5213 10.8218 25.779C10.7205 26.0367 10.6698 26.2962 10.6698 26.5575C10.6698 27.0295 10.8211 27.4187 11.1238 27.725C11.4261 28.0313 11.8133 28.1845 12.2853 28.1845C12.5466 28.1845 12.8145 28.1255 13.0888 28.0075C13.3631 27.8898 13.585 27.7463 13.7543 27.577L20.0928 21.2385L21.5083 22.654L15.1813 28.9925C14.9786 29.1948 14.8266 29.4248 14.7253 29.6825C14.6243 29.9402 14.5738 30.1998 14.5738 30.4615C14.5738 30.9078 14.7315 31.2887 15.0468 31.604C15.3621 31.9193 15.7428 32.077 16.1888 32.077C16.4505 32.077 16.7185 32.018 16.9928 31.9C17.2671 31.782 17.489 31.6383 17.6583 31.469L24.4583 24.681L25.8738 26.096L19.0853 32.896C18.9083 33.0653 18.7628 33.2872 18.6488 33.5615C18.5345 33.8358 18.4773 34.1038 18.4773 34.3655C18.4773 34.8115 18.635 35.1922 18.9503 35.5075C19.266 35.8232 19.6468 35.981 20.0928 35.981C20.3545 35.981 20.6141 35.9303 20.8718 35.829C21.1294 35.7277 21.3595 35.5757 21.5618 35.373L28.3618 28.5845L29.7773 30L22.9773 36.8C22.775 37.0027 22.6231 37.2457 22.5218 37.529C22.4205 37.8123 22.3698 38.0718 22.3698 38.3075C22.3698 38.7795 22.5358 39.1603 22.8678 39.45C23.1998 39.7397 23.5761 39.8845 23.9968 39.8845ZM23.9853 41.8845C22.957 41.8845 22.0768 41.5083 21.3448 40.756C20.6128 40.0033 20.2916 39.0743 20.3813 37.969C19.248 37.982 18.3043 37.6437 17.5503 36.954C16.7966 36.264 16.439 35.3012 16.4773 34.0655C15.2416 34.0782 14.268 33.725 13.5563 33.006C12.8446 32.2867 12.521 31.3385 12.5853 30.1615C11.4723 30.1745 10.5415 29.8617 9.79279 29.223C9.04412 28.5847 8.66978 27.6962 8.66978 26.5575C8.66978 26.0448 8.76912 25.5315 8.96778 25.0175C9.16645 24.5032 9.46062 24.0512 9.85028 23.6615L19.9118 13.6115L25.0773 18.777C25.2466 18.954 25.4556 19.0995 25.7043 19.2135C25.953 19.3275 26.2338 19.3845 26.5468 19.3845C26.9748 19.3845 27.353 19.2352 27.6813 18.9365C28.0096 18.6378 28.1738 18.2487 28.1738 17.769C28.1738 17.4563 28.1166 17.1757 28.0023 16.927C27.8883 16.6783 27.7428 16.4693 27.5658 16.3L20.6853 9.41899C20.1903 8.91665 19.6755 8.54816 19.1408 8.31349C18.6061 8.07882 18.021 7.96149 17.3853 7.96149C16.757 7.96149 16.1865 8.07882 15.6738 8.31349C15.1608 8.54816 14.653 8.91665 14.1503 9.41899L8.06179 15.519C7.63379 15.9473 7.28778 16.4577 7.02378 17.05C6.75945 17.6423 6.61962 18.2538 6.60429 18.8845C6.58895 19.3358 6.62745 19.7698 6.71978 20.1865C6.81212 20.6032 6.95828 20.9948 7.15828 21.3615L5.64278 22.877C5.30678 22.341 5.04395 21.7237 4.85428 21.025C4.66462 20.3263 4.57745 19.6128 4.59278 18.8845C4.60812 17.9768 4.79012 17.107 5.13878 16.275C5.48745 15.443 5.98628 14.7027 6.63528 14.054L12.6853 8.00399C13.3826 7.31399 14.1205 6.80115 14.8988 6.46549C15.6768 6.12949 16.5185 5.96149 17.4238 5.96149C18.3288 5.96149 19.164 6.12949 19.9293 6.46549C20.6946 6.80115 21.4221 7.31399 22.1118 8.00399L23.8543 9.74599L25.5968 8.00399C26.2941 7.31399 27.0255 6.80115 27.7908 6.46549C28.5561 6.12949 29.3915 5.96149 30.2968 5.96149C31.2018 5.96149 32.0435 6.12949 32.8218 6.46549C33.5998 6.80115 34.3338 7.31399 35.0238 8.00399L42.4738 15.454C43.1635 16.1437 43.6955 16.918 44.0698 17.777C44.4441 18.636 44.6313 19.518 44.6313 20.423C44.6313 21.3283 44.4441 22.1637 44.0698 22.929C43.6955 23.6943 43.1635 24.4218 42.4738 25.1115L26.8813 40.6925C26.466 41.1078 26.014 41.4103 25.5253 41.6C25.037 41.7897 24.5236 41.8845 23.9853 41.8845Z" fill="#096C76"/>
</svg>
