<svg width="24" height="24" viewBox="0 0 24 24" fill="none" xmlns="http://www.w3.org/2000/svg">
<path d="M11.9973 6.2771C8.89325 6.2771 6.32129 8.80472 6.32129 11.9532C6.32129 15.1016 8.84891 17.6292 11.9973 17.6292C15.1458 17.6292 17.6734 15.0572 17.6734 11.9532C17.6734 8.84906 15.1014 6.2771 11.9973 6.2771ZM11.9973 15.5894C10.0019 15.5894 8.36112 13.9486 8.36112 11.9532C8.36112 9.95767 10.0019 8.31693 11.9973 8.31693C13.9928 8.31693 15.6336 9.95767 15.6336 11.9532C15.6336 13.9486 13.9928 15.5894 11.9973 15.5894Z" fill="#096C76"/>
<path d="M17.8954 7.42987C18.6056 7.42987 19.1813 6.85412 19.1813 6.14389C19.1813 5.43366 18.6056 4.85791 17.8954 4.85791C17.1851 4.85791 16.6094 5.43366 16.6094 6.14389C16.6094 6.85412 17.1851 7.42987 17.8954 7.42987Z" fill="#096C76"/>
<path d="M21.2209 2.81811C20.068 1.62082 18.4273 1 16.5648 1H7.4299C3.57196 1 1 3.57196 1 7.4299V16.5205C1 18.4273 1.62082 20.068 2.86246 21.2653C4.05975 22.4182 5.65614 22.9947 7.47425 22.9947H16.5205C18.4273 22.9947 20.0236 22.3739 21.1766 21.2653C22.3739 20.1123 22.9947 18.4716 22.9947 16.5648V7.4299C22.9947 5.56745 22.3739 3.97106 21.2209 2.81811ZM21.0436 16.5648C21.0436 17.9395 20.5558 19.0481 19.7576 19.8019C18.9594 20.5558 17.8508 20.9549 16.5205 20.9549H7.47425C6.14392 20.9549 5.03532 20.5558 4.23712 19.8019C3.43893 19.0037 3.03983 17.8951 3.03983 16.5205V7.4299C3.03983 6.09958 3.43893 4.99098 4.23712 4.19278C4.99098 3.43893 6.14392 3.03983 7.47425 3.03983H16.6091C17.9395 3.03983 19.0481 3.43893 19.8463 4.23712C20.6001 5.03532 21.0436 6.14392 21.0436 7.4299V16.5648Z" fill="#096C76"/>
</svg>
