<svg width="33" height="33" viewBox="0 0 33 33" fill="none" xmlns="http://www.w3.org/2000/svg">
<path d="M9.9564 18.1421C9.49662 18.1421 9.10818 17.9836 8.79107 17.6665C8.47396 17.3494 8.3154 16.9609 8.3154 16.5011C8.3154 16.0414 8.47396 15.6529 8.79107 15.3358C9.10818 15.0187 9.49662 14.8601 9.9564 14.8601C10.4162 14.8601 10.8046 15.0187 11.1217 15.3358C11.4388 15.6529 11.5974 16.0414 11.5974 16.5011C11.5974 16.9609 11.4388 17.3494 11.1217 17.6665C10.8046 17.9836 10.4162 18.1421 9.9564 18.1421ZM9.9564 23.1678C8.11018 23.1678 6.53751 22.5183 5.2384 21.2191C3.93929 19.92 3.28973 18.3474 3.28973 16.5011C3.28973 14.6549 3.93929 13.0823 5.2384 11.7831C6.53751 10.484 8.11018 9.83447 9.9564 9.83447C11.3257 9.83447 12.5604 10.2054 13.6604 10.9471C14.7604 11.6891 15.5633 12.6516 16.0691 13.8345H28.3411L31.0077 16.5011L26.7514 20.7061L24.4691 18.9885L22.0591 20.7575L19.6871 19.1678H16.0691C15.5633 20.3336 14.7604 21.2917 13.6604 22.0421C12.5604 22.7926 11.3257 23.1678 9.9564 23.1678ZM9.9564 21.8345C11.2693 21.8345 12.3894 21.4396 13.3167 20.6498C14.2441 19.86 14.8376 18.9216 15.0974 17.8345H20.1104L22.0181 19.1241L24.4947 17.3471L26.6564 18.9755L29.1307 16.5011L27.7974 15.1678H15.0974C14.8376 14.0807 14.2441 13.1422 13.3167 12.3525C12.3894 11.5627 11.2693 11.1678 9.9564 11.1678C8.48973 11.1678 7.23418 11.69 6.18973 12.7345C5.14529 13.7789 4.62307 15.0345 4.62307 16.5011C4.62307 17.9678 5.14529 19.2234 6.18973 20.2678C7.23418 21.3123 8.48973 21.8345 9.9564 21.8345Z" fill="#096C76"/>
</svg>
