<svg width="24" height="24" viewBox="0 0 24 24" fill="none" xmlns="http://www.w3.org/2000/svg">
<path d="M2.25362 8.17986H6.53986V21H2.25362V8.17986ZM4.42543 2C2.95843 2 2 2.95723 2 4.21363C2 5.44419 2.93038 6.42925 4.36933 6.42925H4.39667C5.89171 6.42925 6.82276 5.44414 6.82276 4.21363C6.79471 2.95723 5.89176 2 4.42543 2ZM17.0638 7.87871C14.7886 7.87871 13.7693 9.12252 13.2007 9.99479V8.17986H8.91314C8.9699 9.38254 8.91314 21 8.91314 21H13.2007V13.8403C13.2007 13.4569 13.2287 13.0748 13.3415 12.8001C13.652 12.0346 14.3574 11.2419 15.5407 11.2419C17.0931 11.2419 17.7131 12.4181 17.7131 14.1407V21H22V13.6486C22 9.71091 19.8856 7.87871 17.0638 7.87871Z" fill="#096C76"/>
</svg>
