<svg width="43" height="42" viewBox="0 0 43 42" fill="none" xmlns="http://www.w3.org/2000/svg">
<path d="M9.34277 33.25V8.75V28.4104V24.8601V33.25ZM10.4199 35C9.61432 35 8.94173 34.7302 8.40215 34.1906C7.86257 33.651 7.59277 32.9785 7.59277 32.1729V9.82712C7.59277 9.02154 7.86257 8.34896 8.40215 7.80937C8.94173 7.26979 9.61432 7 10.4199 7H32.7656C33.5712 7 34.2438 7.26979 34.7834 7.80937C35.323 8.34896 35.5928 9.02154 35.5928 9.82712V23.7597H33.8428V9.82712C33.8428 9.55762 33.7306 9.31073 33.5063 9.08644C33.282 8.86215 33.0352 8.75 32.7656 8.75H10.4199C10.1504 8.75 9.9035 8.86215 9.67921 9.08644C9.45492 9.31073 9.34277 9.55762 9.34277 9.82712V32.1729C9.34277 32.4424 9.45492 32.6893 9.67921 32.9136C9.9035 33.1379 10.1504 33.25 10.4199 33.25H21.5254V35H10.4199ZM30.7868 36.75L25.9879 31.9848L27.2365 30.7462L30.7868 34.2965L37.8879 27.1959L39.1265 28.4441L30.7868 36.75ZM14.7949 22.3462C15.1784 22.3462 15.4987 22.2177 15.7556 21.9607C16.0123 21.7038 16.1406 21.3835 16.1406 21C16.1406 20.6165 16.0123 20.2962 15.7556 20.0393C15.4987 19.7823 15.1784 19.6538 14.7949 19.6538C14.4111 19.6538 14.0907 19.7823 13.8337 20.0393C13.577 20.2962 13.4487 20.6165 13.4487 21C13.4487 21.3835 13.577 21.7038 13.8337 21.9607C14.0907 22.2177 14.4111 22.3462 14.7949 22.3462ZM14.7949 15.75C15.1784 15.75 15.4987 15.6215 15.7556 15.3646C16.0123 15.1076 16.1406 14.7874 16.1406 14.4038C16.1406 14.0203 16.0123 13.7 15.7556 13.4431C15.4987 13.1861 15.1784 13.0576 14.7949 13.0576C14.4111 13.0576 14.0907 13.1861 13.8337 13.4431C13.577 13.7 13.4487 14.0203 13.4487 14.4038C13.4487 14.7874 13.577 15.1076 13.8337 15.3646C14.0907 15.6215 14.4111 15.75 14.7949 15.75ZM20.1792 21.875H29.6025V20.125H20.1792V21.875ZM20.1792 15.2788H29.6025V13.5288H20.1792V15.2788Z" fill="#096C76"/>
</svg>
