<svg width="43" height="42" viewBox="0 0 43 42" fill="none" xmlns="http://www.w3.org/2000/svg">
<path d="M31.083 39.375V34.125H25.833V32.375H31.083V27.125H32.833V32.375H38.083V34.125H32.833V39.375H31.083ZM10.4199 35C9.61432 35 8.94173 34.7302 8.40215 34.1906C7.86257 33.651 7.59277 32.9785 7.59277 32.1729V9.82712C7.59277 9.02154 7.86257 8.34896 8.40215 7.80937C8.94173 7.26979 9.61432 7 10.4199 7H32.7656C33.5712 7 34.2438 7.26979 34.7834 7.80937C35.323 8.34896 35.5928 9.02154 35.5928 9.82712V24.3959C35.3145 24.2769 35.0353 24.1713 34.755 24.0791C34.4744 23.9872 34.1703 23.9054 33.8428 23.8337V9.82712C33.8428 9.55762 33.7306 9.31073 33.5063 9.08644C33.282 8.86215 33.0352 8.75 32.7656 8.75H10.4199C10.1504 8.75 9.9035 8.86215 9.67921 9.08644C9.45492 9.31073 9.34277 9.55762 9.34277 9.82712V32.1729C9.34277 32.4424 9.45492 32.6893 9.67921 32.9136C9.9035 33.1379 10.1504 33.25 10.4199 33.25H22.333C22.333 33.5484 22.3483 33.8447 22.379 34.139C22.4096 34.4333 22.4605 34.7203 22.5316 35H10.4199ZM14.7971 28.9424C15.1792 28.9424 15.4987 28.8132 15.7556 28.5547C16.0123 28.2963 16.1406 27.9761 16.1406 27.594C16.1406 27.2119 16.0114 26.8924 15.753 26.6354C15.4946 26.3785 15.1744 26.25 14.7923 26.25C14.4102 26.25 14.0907 26.3792 13.8337 26.6376C13.577 26.896 13.4487 27.2163 13.4487 27.5984C13.4487 27.9805 13.5779 28.3 13.8363 28.5569C14.0948 28.8139 14.415 28.9424 14.7971 28.9424ZM14.7971 22.3462C15.1792 22.3462 15.4987 22.217 15.7556 21.9586C16.0123 21.7001 16.1406 21.3799 16.1406 20.9978C16.1406 20.6157 16.0114 20.2962 15.753 20.0393C15.4946 19.7823 15.1744 19.6538 14.7923 19.6538C14.4102 19.6538 14.0907 19.783 13.8337 20.0414C13.577 20.2999 13.4487 20.6201 13.4487 21.0022C13.4487 21.3843 13.5779 21.7038 13.8363 21.9607C14.0948 22.2177 14.415 22.3462 14.7971 22.3462ZM14.7971 15.75C15.1792 15.75 15.4987 15.6208 15.7556 15.3624C16.0123 15.104 16.1406 14.7837 16.1406 14.4016C16.1406 14.0195 16.0114 13.7 15.753 13.4431C15.4946 13.1861 15.1744 13.0576 14.7923 13.0576C14.4102 13.0576 14.0907 13.1868 13.8337 13.4453C13.577 13.7037 13.4487 14.0239 13.4487 14.406C13.4487 14.7881 13.5779 15.1076 13.8363 15.3646C14.0948 15.6215 14.415 15.75 14.7971 15.75ZM20.1792 21.875H29.6025V20.125H20.1792V21.875ZM20.1792 15.2788H29.6025V13.5288H20.1792V15.2788ZM20.1792 28.4712H23.6862C23.8522 28.1369 24.0372 27.8295 24.2414 27.5489C24.4456 27.2686 24.6688 26.9927 24.9112 26.7212H20.1792V28.4712Z" fill="#096C76"/>
</svg>
