<svg width="112" height="21" viewBox="0 0 112 21" fill="none" xmlns="http://www.w3.org/2000/svg">
<path d="M10.1282 18.8128V14.7536V10.7555L12.2904 10.4459L12.3648 9.70681L10.1282 7.69983V4.495C10.1282 4.495 13.2763 4.18536 14.7108 1.73089C14.7108 1.73089 17.5217 3.21578 17.924 5.45328C18.3262 7.68853 18.382 12.6924 18.382 12.6924C18.382 12.6924 17.4636 16.3651 16.5452 17.0567C15.6269 17.7483 13.1739 19.9315 10.1258 19.7711V18.8128H10.1282Z" fill="#ACE2CC"/>
<path d="M10.6835 0.00226231L10.6044 0L10.5579 0.0406803C10.2534 0.320934 9.11409 1.2069 7.6656 0.264436L7.18665 0.958283C7.81905 1.36962 8.42821 1.52557 8.97924 1.52557C9.77672 1.52557 10.4556 1.20012 10.9113 0.849802C11.3554 0.870143 11.7902 0.926646 12.211 1.01931C11.7832 1.47359 10.9113 2.22621 9.63954 2.459C8.31195 2.70535 6.87741 2.31209 5.3801 1.29956L4.88952 1.98664C6.24966 2.90198 7.57958 3.36304 8.85834 3.36304C9.17454 3.36304 9.48841 3.33592 9.79764 3.27942C11.6437 2.94266 12.7644 1.71316 13.1108 1.28374C13.513 1.42839 13.8967 1.60242 14.264 1.81035C13.5991 2.61269 9.80927 6.59951 3.26201 2.34599L2.78305 3.0421C5.12435 4.56089 7.1634 5.09428 8.87229 5.09428C12.4203 5.09428 14.543 2.80027 14.9801 2.27367C16.782 3.58679 17.9562 5.67287 17.9562 8.0279V12.2068C17.9562 16.0332 14.0059 19.1725 10.1232 19.3895V18.0537H9.69302C6.11481 18.0537 3.15506 16.5169 3.15506 12.2068V11.2712H2.72493C1.69727 11.2712 0.860261 10.4575 0.860261 9.45855V9.28904C0.860261 8.29007 1.69727 7.47644 2.72493 7.47644V6.64019C1.22296 6.64019 0 7.82901 0 9.28904V9.45855C0 10.7785 0.995109 11.8723 2.2948 12.0735V12.2068C2.2948 16.1485 4.48962 18.7363 9.26289 18.8832V20.237H9.69302C14.2477 20.237 18.8164 16.6344 18.8164 12.2068V8.0279C18.8187 3.63878 15.1801 0.0678054 10.6835 0.00226231Z" fill="#096C76"/>
<path d="M11.6124 10.3493H10.7568C10.4127 10.3493 10.1314 10.6205 10.1314 10.955V12.3449C9.54318 12.7088 8.31557 13.145 6.5625 12.1009C7.45298 14.709 9.76638 13.9225 10.3779 13.6603C10.4778 13.6174 10.5801 13.6174 10.6801 13.6603C11.2916 13.9225 13.605 14.709 14.4955 12.1009C12.8075 13.1043 11.6031 12.7382 10.9917 12.3856V11.1855H11.6124C12.11 11.1855 12.5448 10.9098 12.7471 10.4691C12.9493 10.0261 12.868 9.52885 12.5355 9.16949L12.3379 8.95704V8.62029C12.3379 8.27675 12.6262 7.9965 12.9796 7.9965C13.333 7.9965 13.6213 8.27675 13.6213 8.62029V8.98416H14.4815V8.62029C14.4815 7.81569 13.8073 7.16026 12.9796 7.16026C12.3286 7.16026 11.7798 7.56708 11.5706 8.12984L10.987 7.49927V5.88104H10.1268V7.58742C10.1268 7.73885 10.1849 7.88349 10.2872 7.99424L11.8938 9.73C12.0472 9.89725 11.9821 10.0803 11.9589 10.1323C11.9379 10.1798 11.8426 10.3493 11.6124 10.3493Z" fill="#096C76"/>
<path d="M7.10155 7.15868C6.27385 7.15868 5.59727 7.81411 5.59727 8.6187V8.98258H6.45752V8.6187C6.45752 8.27517 6.74583 7.99491 7.10155 7.99491C7.45496 7.99491 7.74326 8.27517 7.74326 8.6187V8.98258H8.60352V8.6187C8.60352 7.81411 7.92926 7.15868 7.10155 7.15868Z" fill="#096C76"/>
<path d="M29.6043 19.1733C26.1981 19.1733 23.7917 17.3291 23.7429 14.6102H26.1028C26.2493 15.982 27.2467 17.3539 29.6066 17.3539C31.748 17.3539 33.0128 16.1696 33.0128 14.6102C33.0128 10.1645 23.8406 13.0032 23.8406 6.87834C23.8406 4.15943 26.1028 2.31519 29.4601 2.31519C32.6942 2.31519 34.8123 4.04191 35.0797 6.54837H32.6477C32.5013 5.43639 31.4294 4.1843 29.3648 4.1617C27.5397 4.11197 26.1051 5.03636 26.1051 6.81054C26.1051 11.0663 35.2518 8.41747 35.2518 14.5198C35.2494 16.8567 33.2778 19.1733 29.6043 19.1733Z" fill="#1C1C1C"/>
<path d="M42.3346 19.223C38.5379 19.223 35.7409 16.6217 35.7409 12.5083C35.7409 8.41748 38.4402 5.84096 42.3346 5.84096C46.2012 5.84096 48.7331 8.4898 48.7331 12.0359C48.7331 12.5083 48.7099 12.888 48.661 13.3377H38.0055C38.1775 15.9617 40.0724 17.4059 42.337 17.4059C44.3318 17.4059 45.5967 16.4137 46.0826 15.017H48.4681C47.7822 17.3788 45.6408 19.223 42.3346 19.223ZM38.0264 11.5861H46.4453C46.4685 9.05483 44.5225 7.6626 42.237 7.6626C40.0701 7.66034 38.2705 9.05483 38.0264 11.5861Z" fill="#1C1C1C"/>
<path d="M50.5103 6.0517L54.6698 17.0245L58.806 6.0517H61.1659L55.9369 19.0112H53.3585L48.1272 6.0517H50.5103Z" fill="#1C1C1C"/>
<path d="M67.1792 19.223C63.3824 19.223 60.5854 16.6217 60.5854 12.5083C60.5854 8.41748 63.2848 5.84096 67.1792 5.84096C71.0457 5.84096 73.5776 8.4898 73.5776 12.0359C73.5776 12.5083 73.5544 12.888 73.5056 13.3377H62.85C63.022 15.9617 64.9169 17.4059 67.1815 17.4059C69.1764 17.4059 70.4412 16.4137 70.9271 15.017H73.3126C72.629 17.3788 70.4877 19.223 67.1792 19.223ZM62.8732 11.5861H71.2921C71.3154 9.05483 69.3694 7.6626 67.0839 7.6626C64.9169 7.66034 63.1174 9.05483 62.8732 11.5861Z" fill="#1C1C1C"/>
<path d="M76.7669 19.0118H74.5535V6.05234H76.7669V8.1565C77.5202 6.71455 78.9571 5.81729 81.0729 5.81729V8.03897H80.4893C78.3735 8.03897 76.7669 8.96109 76.7669 11.9648V19.0118Z" fill="#1C1C1C"/>
<path d="M81.3211 2.48077C81.3211 1.65357 81.9767 1.01396 82.83 1.01396C83.6322 1.01396 84.2901 1.65357 84.2901 2.48077C84.2901 3.30797 83.6322 3.94757 82.83 3.94757C81.9767 3.94757 81.3211 3.31023 81.3211 2.48077ZM81.6861 6.05173H83.8995V19.0112H81.6861V6.05173Z" fill="#1C1C1C"/>
<path d="M95.476 11.6764C95.476 9.02751 93.9926 7.68048 91.7536 7.68048C89.4914 7.68048 87.9359 9.0501 87.9359 11.8413V19.0059H85.7225V6.04643H87.9359V7.89068C88.8125 6.54139 90.4167 5.80911 92.2163 5.80911C95.3063 5.80911 97.6662 7.65336 97.6662 11.3667V19.0036H95.476V11.6764Z" fill="#1C1C1C"/>
<path d="M105.164 19.223C101.393 19.223 98.524 16.6217 98.524 12.5083C98.524 8.41748 101.493 5.84096 105.262 5.84096C109.056 5.84096 112 8.41748 112 12.5083C112 16.6217 108.959 19.223 105.164 19.223ZM105.164 17.3313C107.475 17.3313 109.738 15.7945 109.738 12.506C109.738 9.24242 107.522 7.70554 105.236 7.70554C102.9 7.70554 100.784 9.24242 100.784 12.506C100.786 15.7945 102.853 17.3313 105.164 17.3313Z" fill="#1C1C1C"/>
</svg>
