<svg width="43" height="42" viewBox="0 0 43 42" fill="none" xmlns="http://www.w3.org/2000/svg">
<path d="M20.065 31.9167C23.502 31.9167 26.4354 30.7036 28.865 28.2776C31.2946 25.8512 32.5094 22.9161 32.5094 19.4722C32.5094 16.0352 31.2946 13.1019 28.865 10.6722C26.4354 8.24259 23.502 7.02778 20.065 7.02778C16.6211 7.02778 13.686 8.24259 11.2597 10.6722C8.83359 13.1019 7.62055 16.0352 7.62055 19.4722C7.62055 22.9161 8.83359 25.8512 11.2597 28.2776C13.686 30.7036 16.6211 31.9167 20.065 31.9167ZM20.065 26.0362C17.7426 26.0362 15.6828 25.4396 13.8854 24.2464C12.0884 23.0533 10.7865 21.4619 9.97966 19.4722C10.7865 17.5122 12.0884 15.9282 13.8854 14.7202C15.6828 13.5122 17.7426 12.9082 20.065 12.9082C22.3577 12.9082 24.4028 13.5122 26.2001 14.7202C27.9971 15.9282 29.3025 17.5122 30.1161 19.4722C29.3025 21.4619 27.9971 23.0533 26.2001 24.2464C24.4028 25.4396 22.3577 26.0362 20.065 26.0362ZM20.065 24.4638C21.8087 24.4638 23.4189 24.0199 24.8957 23.1322C26.3727 22.2442 27.542 21.0242 28.4037 19.4722C27.542 17.927 26.3727 16.7088 24.8957 15.8176C23.4189 14.9263 21.8087 14.4807 20.065 14.4807C18.3145 14.4807 16.6951 14.9263 15.2068 15.8176C13.7185 16.7088 12.5435 17.927 11.6819 19.4722C12.5435 21.0242 13.7185 22.2442 15.2068 23.1322C16.6951 24.0199 18.3145 24.4638 20.065 24.4638ZM20.065 22.1389C20.8057 22.1389 21.4354 21.8814 21.9539 21.3664C22.4724 20.8512 22.7317 20.2198 22.7317 19.4722C22.7317 18.7315 22.4724 18.1019 21.9539 17.5833C21.4354 17.0648 20.8057 16.8056 20.065 16.8056C19.3174 16.8056 18.686 17.0648 18.1708 17.5833C17.6558 18.1019 17.3983 18.7315 17.3983 19.4722C17.3983 20.2198 17.6558 20.8512 18.1708 21.3664C18.686 21.8814 19.3174 22.1389 20.065 22.1389ZM20.065 33.6944C18.0934 33.6944 16.2456 33.3235 14.5214 32.5816C12.7973 31.8396 11.2908 30.8242 10.0019 29.5353C8.713 28.2464 7.69759 26.7399 6.95566 25.0158C6.21374 23.2916 5.84277 21.4438 5.84277 19.4722C5.84277 17.5075 6.21374 15.663 6.95566 13.9389C7.69759 12.2147 8.713 10.7064 10.0019 9.414C11.2908 8.12185 12.7973 7.10481 14.5214 6.36289C16.2456 5.62096 18.0934 5.25 20.065 5.25C22.0297 5.25 23.8742 5.62096 25.5983 6.36289C27.3225 7.10481 28.8308 8.12185 30.1232 9.414C31.4154 10.7064 32.4324 12.2147 33.1743 13.9389C33.9163 15.663 34.2872 17.5075 34.2872 19.4722C34.2872 21.2773 33.9705 22.9787 33.337 24.5767C32.7032 26.1743 31.8268 27.6124 30.7077 28.8909L37.8428 36.026L36.6086 37.25L29.4734 30.1251C28.1949 31.2442 26.7568 32.1189 25.1592 32.7491C23.5613 33.3793 21.8632 33.6944 20.065 33.6944Z" fill="#096C76"/>
</svg>
