<svg width="290" height="143" viewBox="0 0 290 143" fill="none" xmlns="http://www.w3.org/2000/svg">
<mask id="mask0_3159_226" style="mask-type:alpha" maskUnits="userSpaceOnUse" x="104" y="0" width="186" height="143">
<rect x="104.867" width="184.85" height="142.892" fill="white"/>
</mask>
<g mask="url(#mask0_3159_226)">
<path d="M165.826 92.9939L154.876 154.959M232.303 104.741L221.353 166.707" stroke="#99DBC0" stroke-width="0.8"/>
<path d="M166.137 93.4673L166.747 90.0113C169.727 73.1517 185.809 61.8995 202.669 64.8788L207.693 65.7667C224.553 68.7461 235.805 84.8287 232.826 101.688L232.215 105.144" stroke="#99DBC0" stroke-width="0.8"/>
<path d="M200.618 90.0927C210.086 91.7659 218.439 94.4292 224.288 97.3735C227.214 98.8468 229.493 100.38 230.972 101.878C232.46 103.385 233.074 104.788 232.856 106.021C232.638 107.254 231.581 108.36 229.666 109.266C227.763 110.167 225.097 110.826 221.843 111.207C215.339 111.968 206.579 111.609 197.112 109.936C187.644 108.263 179.291 105.598 173.442 102.654C170.515 101.18 168.236 99.6475 166.757 98.1494C165.269 96.6422 164.656 95.2407 164.874 94.0075C165.092 92.7742 166.148 91.6669 168.063 90.7609C169.966 89.8605 172.632 89.2013 175.886 88.8203C182.39 88.0588 191.15 88.4196 200.618 90.0927Z" fill="#E8F7F1" stroke="#99DBC0" stroke-width="0.8"/>
<path d="M227.853 109.866C228.817 104.412 216.256 97.6338 199.798 94.7254C183.34 91.817 169.217 93.8801 168.253 99.3335" stroke="#99DBC0" stroke-width="0.8"/>
<path d="M175.749 103.717L172.312 123.167C172.01 124.873 172.926 126.562 174.521 127.24V127.24C176.724 128.176 179.225 126.82 179.642 124.462L180.612 118.97C180.901 117.339 182.719 116.487 184.157 117.31V117.31C185.033 117.811 185.5 118.808 185.324 119.802L182.896 133.541C182.62 135.105 183.444 136.655 184.895 137.3V137.3C186.947 138.213 189.312 136.956 189.703 134.744L192.559 118.58C192.814 117.135 194.194 116.17 195.639 116.425V116.425C197.085 116.681 198.05 118.06 197.795 119.506L196.597 126.281C196.187 128.601 198.169 130.643 200.501 130.301V130.301C201.975 130.086 203.144 128.95 203.404 127.483L203.845 124.984C203.981 124.213 204.529 123.58 205.272 123.335V123.335C206.8 122.829 208.314 124.139 208.034 125.724L205.409 140.578C204.954 143.15 207.222 145.378 209.786 144.878V144.878C211.297 144.584 212.471 143.389 212.739 141.873L218.077 111.662" stroke="#99DBC0" stroke-width="0.8"/>
<path d="M221.195 104.169L219.154 105.143C217.655 105.858 215.872 105.6 214.638 104.487L214.325 104.205C213.28 103.264 211.771 103.045 210.502 103.65L210.132 103.827C208.923 104.404 207.478 104.092 206.615 103.069V103.069C205.751 102.046 204.306 101.735 203.098 102.312L202.802 102.453C201.503 103.073 199.954 102.799 198.946 101.772L197.125 99.9151" stroke="#99DBC0" stroke-width="0.8"/>
<path d="M195.106 102.479L192.639 103.656C191.431 104.233 189.986 103.922 189.122 102.899V102.899C188.258 101.876 186.813 101.565 185.605 102.141L185.309 102.282C184.01 102.902 182.461 102.629 181.454 101.601L179.633 99.7445" stroke="#99DBC0" stroke-width="0.8"/>
<path d="M257.22 70.1499L265.924 66.8843" stroke="#99DBC0" stroke-width="0.8"/>
<path d="M258.586 63.1682L260.303 62.5244C263.198 61.438 266.427 62.9043 267.513 65.8L285.38 113.426C286.079 115.287 285.135 117.363 283.274 118.061L277.812 120.11C275.951 120.808 273.876 119.865 273.178 118.004L255.311 70.3779L255.216 70.1058C254.317 67.2828 255.781 64.2207 258.586 63.1682Z" stroke="#99DBC0" stroke-width="0.8"/>
<rect x="192.508" y="30.8263" width="84.7615" height="27.407" rx="5.6" transform="rotate(-20.5639 192.508 30.8263)" fill="#E8F7F1" stroke="#99DBC0" stroke-width="0.8"/>
<path d="M276.022 12.5605L277.626 11.9588C279.695 11.1828 282 12.2305 282.776 14.2989L288.491 29.5324C289.267 31.6008 288.22 33.9066 286.151 34.6826L257.057 45.5974C254.989 46.3733 253.941 48.6791 254.717 50.7475L259.254 62.8402" stroke="#99DBC0" stroke-width="0.8"/>
<path d="M218.954 21.5647L220.067 24.531" stroke="#99DBC0" stroke-width="0.8"/>
<path d="M222.909 20.0808L224.578 24.5302" stroke="#99DBC0" stroke-width="0.8"/>
<path d="M215 23.0481L217.597 29.9694" stroke="#99DBC0" stroke-width="0.8"/>
<path d="M266.787 31.8191L264.005 24.4034" stroke="#99DBC0" stroke-width="0.8"/>
<path d="M262.84 33.3025L261.171 28.8531" stroke="#99DBC0" stroke-width="0.8"/>
<path d="M270.744 30.3355L269.631 27.3692" stroke="#99DBC0" stroke-width="0.8"/>
<path d="M178.272 50.1132C180.122 51.6449 180.381 54.3865 178.849 56.2367C177.318 58.0868 174.575 58.3451 172.725 56.8134C170.875 55.2816 170.617 52.54 172.149 50.6898C173.681 48.8397 176.422 48.5816 178.272 50.1132Z" stroke="#99DBC0" stroke-width="0.8"/>
<path d="M155.644 59.1245C156.45 59.7915 156.563 60.985 155.896 61.7906C155.229 62.5962 154.035 62.7086 153.229 62.0417C152.424 61.3747 152.311 60.1813 152.978 59.3756C153.645 58.5699 154.839 58.4575 155.644 59.1245Z" fill="#99DBC0" stroke="#99DBC0" stroke-width="0.8"/>
</g>
<path d="M138.505 110.681C143.522 113.582 145.237 120 142.336 125.018C139.435 130.035 133.016 131.751 127.999 128.85L82.9065 102.777L93.4118 84.6083L138.505 110.681Z" stroke="#ACE2CC" stroke-width="0.8"/>
<path d="M93.9216 84.9061C98.9387 87.8071 100.655 94.2258 97.754 99.243C94.853 104.26 88.4335 105.976 83.4163 103.075C78.3992 100.174 76.6842 93.755 79.5852 88.7377C82.4863 83.7207 88.9045 82.0053 93.9216 84.9061Z" fill="#E8F7F1" stroke="#ACE2CC" stroke-width="0.8"/>
<ellipse cx="92.1006" cy="95.9715" rx="6.93238" ry="6.93248" transform="rotate(30.0367 92.1006 95.9715)" fill="#ACE2CC"/>
<path d="M95.3422 52.6938C94.9567 52.9162 94.4511 52.9199 93.9145 52.678C93.3785 52.4362 92.8435 51.9595 92.4589 51.2935C92.0746 50.6276 91.9296 49.9266 91.9883 49.3416C92.047 48.7558 92.3025 48.3191 92.6879 48.0964C93.0735 47.8738 93.5802 47.8705 94.117 48.1126C94.6529 48.3543 95.1868 48.8309 95.5712 49.4967C95.9557 50.1626 96.1019 50.8639 96.0432 51.449C95.9845 52.0348 95.7278 52.4712 95.3422 52.6938Z" stroke="#ACE2CC" stroke-width="0.8"/>
<path d="M93.04 52.2795L86.989 55.7731C86.2579 56.1952 85.3616 56.2136 84.6138 55.8219V55.8219V55.8219C84.6484 54.9784 85.1125 54.2114 85.8436 53.7893L91.8947 50.2957" stroke="#ACE2CC" stroke-width="0.8"/>
<path d="M51.886 22.0296C51.6609 22.8698 50.9754 23.5397 49.9791 23.9168C48.9834 24.2936 47.7071 24.3625 46.3941 24.0107C45.0813 23.6588 44.0112 22.9612 43.3374 22.1372C42.6631 21.3125 42.4044 20.3895 42.6295 19.5494C42.8546 18.7094 43.5401 18.0402 44.5362 17.6631C45.5317 17.2864 46.8073 17.2173 48.1202 17.569C49.4332 17.9208 50.504 18.6187 51.1779 19.4428C51.8519 20.2673 52.111 21.1896 51.886 22.0296Z" stroke="#ACE2CC" stroke-width="0.8"/>
<path d="M48.3496 24.2268L45.2755 35.6994C44.9041 37.0856 43.8489 38.185 42.4792 38.613V38.613V38.613C41.507 37.5575 41.1429 36.0777 41.5143 34.6916L44.5884 23.219" stroke="#ACE2CC" stroke-width="0.8"/>
<path d="M3.72266 110.834L12.7297 119.841" stroke="#99DBC0" stroke-width="0.8"/>
<path d="M32.6994 89.9312L34.0397 91.2715C36.235 93.4667 36.2252 97.0285 34.0183 99.2119L12.3712 120.629C10.9631 122.022 8.69418 122.015 7.29371 120.615L3.12496 116.446C1.75796 115.079 1.7204 112.887 3.00897 111.476L3.13879 111.342L24.8017 89.9097C26.9921 87.743 30.5208 87.7526 32.6994 89.9312Z" stroke="#99DBC0" stroke-width="0.8"/>
<path d="M31.6576 89.2056L54.979 65.9645L56.548 62.5532L60.6982 58.4031L65.6112 63.316L61.4609 67.4662L58.0496 69.0351L34.7282 92.2762" stroke="#99DBC0" stroke-width="0.8"/>
</svg>
