<svg width="1222" height="506" viewBox="0 0 1222 506" fill="none" xmlns="http://www.w3.org/2000/svg">
<path d="M31.9222 305.602L120.653 258.611C121.64 258.088 122.865 258.476 123.372 259.473L133.089 278.598C133.583 279.571 133.206 280.761 132.242 281.271L43.661 328.183C40.2036 330.014 35.9165 328.656 34.1443 325.168L28.9576 314.959C27.2274 311.554 28.5466 307.39 31.9222 305.602Z" stroke="#99DBC0" stroke-width="1.2"/>
<path d="M163.156 244.119L125.337 263.335L131.101 274.68L168.921 255.465" stroke="#99DBC0" stroke-width="1.2"/>
<path d="M213.613 272.664C214.422 273.294 214.302 274.553 213.387 275.017L188.797 287.511C187.874 287.98 186.779 287.319 186.763 286.284L186.577 273.96L186.571 273.524L186.155 273.396L182.835 272.37C182.467 272.256 182.162 271.996 181.992 271.651L158.453 223.78L158.439 223.753L158.423 223.726L156.077 220L156.02 219.91L155.937 219.845L132.133 201.372C130.916 200.428 131.893 198.497 133.374 198.919L174.553 210.663C178.741 211.858 182.229 214.77 184.15 218.678L204.505 260.073C204.695 260.458 204.697 260.909 204.512 261.295L203.226 263.983L203.018 264.418L203.399 264.715L213.613 272.664Z" stroke="#99DBC0" stroke-width="1.2"/>
<path d="M97.8672 270.15L109.396 292.841" stroke="#99DBC0" stroke-width="1.2"/>
<path d="M209.806 270.374L187.114 281.903" stroke="#99DBC0" stroke-width="1.2"/>
<path d="M165.017 238.411L162.126 239.879C161.634 240.129 161.437 240.731 161.688 241.224L170.389 258.35C170.639 258.843 171.241 259.039 171.734 258.789L174.624 257.32" stroke="#99DBC0"/>
<path d="M304.359 298.873L288.273 308.654M311.484 293.722L318.927 289.21L300.191 258.601C299.037 256.717 296.575 256.124 294.691 257.277L103.766 374.144C101.882 375.297 101.289 377.759 102.443 379.643L121.179 410.253L284.803 310.844" stroke="#99DBC0" stroke-width="1.2"/>
<path d="M115.237 367.12L119.142 373.499" stroke="#99DBC0" stroke-width="1.2"/>
<path d="M127.996 359.309L135.805 372.067" stroke="#99DBC0" stroke-width="1.2"/>
<path d="M140.75 351.504L144.655 357.883" stroke="#99DBC0" stroke-width="1.2"/>
<path d="M153.509 343.693L161.318 356.451" stroke="#99DBC0" stroke-width="1.2"/>
<path d="M166.274 335.876L170.179 342.255" stroke="#99DBC0" stroke-width="1.2"/>
<path d="M179.023 328.073L186.833 340.831" stroke="#99DBC0" stroke-width="1.2"/>
<path d="M191.785 320.262L195.69 326.641" stroke="#99DBC0" stroke-width="1.2"/>
<path d="M204.544 312.452L212.353 325.21" stroke="#99DBC0" stroke-width="1.2"/>
<path d="M217.302 304.643L221.206 311.022" stroke="#99DBC0" stroke-width="1.2"/>
<path d="M230.059 296.836L237.868 309.594" stroke="#99DBC0" stroke-width="1.2"/>
<path d="M242.817 289.028L246.722 295.407" stroke="#99DBC0" stroke-width="1.2"/>
<path d="M255.577 281.217L263.386 293.975" stroke="#99DBC0" stroke-width="1.2"/>
<path d="M268.331 273.41L272.236 279.789" stroke="#99DBC0" stroke-width="1.2"/>
<path d="M281.091 265.598L288.9 278.356" stroke="#99DBC0" stroke-width="1.2"/>
<path d="M203.272 292.301L208.896 288.859C210.073 288.138 211.612 288.509 212.333 289.686L213.793 292.072L203.905 298.124L202.445 295.739C201.724 294.561 202.094 293.022 203.272 292.301Z" stroke="#99DBC0"/>
<path d="M206.651 296.234L213.128 306.815M210.619 293.805L217.096 304.386" stroke="#99DBC0" stroke-width="1.2"/>
<path d="M193.279 96.2274C193.903 94.8715 195.932 95.303 195.951 96.7954L195.986 99.7252C196.087 108.066 200.981 115.603 208.559 119.088L211.221 120.312C212.577 120.936 212.146 122.966 210.653 122.984L207.723 123.019C199.383 123.12 191.845 128.014 188.36 135.592L187.136 138.254C186.512 139.61 184.483 139.179 184.464 137.686L184.429 134.757C184.329 126.416 179.434 118.879 171.856 115.393L169.194 114.17C167.838 113.546 168.27 111.516 169.762 111.498L172.692 111.463C181.032 111.362 188.57 106.468 192.055 98.8895L193.279 96.2274Z" stroke="#99DBC0" stroke-width="1.2"/>
<path d="M216.657 149.374C218.932 149.858 220.384 152.095 219.901 154.37C219.417 156.645 217.18 158.098 214.905 157.614C212.63 157.13 211.177 154.893 211.661 152.618C212.145 150.343 214.382 148.891 216.657 149.374Z" stroke="#99DBC0" stroke-width="1.2"/>
<path d="M1006.34 172.037L1021.8 183.509" stroke="#99DBC0" stroke-width="1.2"/>
<path d="M1042.58 132.554L1049.81 137.918C1052.21 139.702 1052.71 143.102 1050.91 145.496L1020.22 186.396C1019.09 187.892 1016.97 188.201 1015.47 187.086L1005.03 179.339C1003.52 178.215 1003.21 176.075 1004.34 174.567L1035.05 133.649C1036.83 131.273 1040.2 130.784 1042.58 132.554Z" stroke="#99DBC0" stroke-width="1.2"/>
<path d="M1043.31 133.523L1073.03 93.6175L1074.62 88.1707L1079.91 81.048L1088.34 87.3055L1083.06 94.4281L1078.3 97.5285L1048.58 137.433" stroke="#99DBC0" stroke-width="1.2"/>
<path d="M1067.05 58.5761V58.5761C1066.57 57.1054 1067.38 55.5299 1068.85 55.0572L1123.06 37.6344C1126.22 36.6204 1129.59 38.3559 1130.61 41.5106L1156.89 123.292C1157.91 126.447 1156.17 129.826 1153.02 130.84L1101.86 147.283C1098.71 148.297 1095.33 146.561 1094.31 143.407L1080.53 100.519M1072.18 74.5543L1074.54 81.8776" stroke="#99DBC0" stroke-width="1.2"/>
<circle cx="5.59444" cy="5.59444" r="4.99444" transform="matrix(0.889563 0.456813 -0.456822 0.889558 1119.55 42.2144)" stroke="#99DBC0" stroke-width="1.2"/>
<path d="M1120.25 74.044C1129.8 78.9493 1133.57 90.6697 1128.66 100.222C1123.76 109.773 1112.04 113.54 1102.49 108.635C1092.93 103.73 1089.17 92.01 1094.07 82.458C1098.98 72.906 1110.7 69.1388 1120.25 74.044Z" stroke="#99DBC0" stroke-width="1.2"/>
<path d="M1124.2 45.3923L1120.05 53.4793" stroke="#99DBC0" stroke-width="1.2"/>
<path d="M1104.08 91.8038C1103 91.2495 1101.68 91.6754 1101.12 92.7547C1100.57 93.8342 1101 95.1587 1102.08 95.713C1103.15 96.2671 1104.48 95.8415 1105.03 94.7622C1105.59 93.6829 1105.16 92.3582 1104.08 91.8038Z" fill="#99DBC0" stroke="#99DBC0" stroke-width="1.2"/>
<path d="M1119.74 86.7734C1118.66 86.2191 1117.33 86.645 1116.78 87.7243C1116.22 88.8038 1116.65 90.1283 1117.73 90.6826C1118.81 91.2367 1120.13 90.8111 1120.69 89.7318C1121.24 88.6525 1120.81 87.3278 1119.74 86.7734Z" fill="#99DBC0" stroke="#99DBC0" stroke-width="1.2"/>
<circle cx="5.59444" cy="5.59444" r="4.99444" transform="matrix(0.889563 0.456813 -0.456822 0.889558 1101.68 126.774)" stroke="#99DBC0" stroke-width="1.2"/>
<path d="M1106.34 129.952L1102.18 138.039" stroke="#99DBC0" stroke-width="1.2"/>
<circle cx="5.59444" cy="5.59444" r="4.99444" transform="matrix(0.889563 0.456813 -0.456822 0.889558 1142.5 113.654)" stroke="#99DBC0" stroke-width="1.2"/>
<path d="M1147.16 116.831L1143 124.918" stroke="#99DBC0" stroke-width="1.2"/>
<circle cx="5.59444" cy="5.59444" r="4.99444" transform="matrix(0.889562 0.456814 -0.456822 0.889558 1062.74 60.4662)" stroke="#99DBC0" stroke-width="1.2"/>
<path d="M1067.4 63.6428L1063.24 71.7298" stroke="#99DBC0" stroke-width="1.2"/>
<path d="M1068.77 64.6136L1082.55 60.2063C1083.22 59.9926 1083.95 60.1263 1084.49 60.5626V60.5626C1085.16 61.0901 1085.44 61.9658 1085.21 62.7811V62.7811C1085.02 63.4543 1084.5 63.989 1083.84 64.2059L1070.14 68.6715" stroke="#99DBC0" stroke-width="1.2"/>
<path d="M1156.83 151.47C1156.03 150.207 1157.5 148.741 1158.76 149.54L1162.69 152.03C1168.43 155.67 1175.75 155.679 1181.5 152.054L1185.43 149.576C1186.69 148.78 1188.16 150.249 1187.36 151.51L1184.87 155.435C1181.23 161.175 1181.22 168.498 1184.84 174.248L1187.32 178.178C1188.12 179.441 1186.65 180.907 1185.39 180.108L1181.46 177.619C1175.72 173.979 1168.4 173.969 1162.65 177.594L1158.72 180.073C1157.46 180.868 1155.99 179.399 1156.79 178.139L1159.28 174.213C1162.92 168.474 1162.93 161.151 1159.31 155.401L1156.83 151.47Z" stroke="#99DBC0" stroke-width="1.2"/>
<path d="M1130.01 161.148C1131.07 160.806 1132.21 161.392 1132.55 162.456C1132.89 163.52 1132.31 164.661 1131.24 165.003C1130.18 165.345 1129.04 164.759 1128.7 163.695C1128.36 162.631 1128.94 161.49 1130.01 161.148Z" fill="#99DBC0" stroke="#99DBC0" stroke-width="1.2"/>
<mask id="mask0_8161_1386" style="mask-type:alpha" maskUnits="userSpaceOnUse" x="802" y="214" width="378" height="292">
<rect x="802.869" y="214.786" width="376.624" height="291.136" rx="16" fill="white"/>
</mask>
<g mask="url(#mask0_8161_1386)">
<path d="M916.792 410.394L895.922 528.491M1043.49 432.783L1022.62 550.881" stroke="#99DBC0" stroke-width="1.2"/>
<path d="M983.124 404.705C1001.18 407.896 1017.12 412.977 1028.28 418.598C1033.87 421.41 1038.23 424.341 1041.06 427.214C1043.91 430.101 1045.13 432.822 1044.7 435.25C1044.27 437.678 1042.2 439.82 1038.53 441.555C1034.88 443.282 1029.78 444.542 1023.57 445.269C1011.15 446.723 994.44 446.034 976.385 442.844C958.33 439.653 942.395 434.572 931.229 428.952C925.644 426.14 921.283 423.208 918.447 420.335C915.597 417.448 914.384 414.726 914.813 412.298C915.242 409.87 917.315 407.729 920.981 405.994C924.63 404.267 929.731 403.007 935.943 402.28C948.358 400.827 965.069 401.515 983.124 404.705Z" fill="#E8F7F1" stroke="#99DBC0" stroke-width="1.2"/>
<path d="M915.971 418.307L917.714 408.443C923.769 374.179 956.453 351.312 990.716 357.367L992.783 357.732C1027.05 363.787 1049.91 396.471 1043.86 430.734L1042.12 440.599" stroke="#99DBC0" stroke-width="1.2"/>
<path d="M1035.01 442.547C1036.84 432.154 1012.91 419.235 981.538 413.692C950.171 408.149 923.254 412.081 921.418 422.474" stroke="#99DBC0" stroke-width="1.2"/>
<path d="M935.705 430.834L929.154 467.903C928.58 471.155 930.325 474.374 933.365 475.665V475.665C937.563 477.45 942.33 474.864 943.124 470.372L944.974 459.904C945.523 456.795 948.989 455.172 951.729 456.74V456.74C953.399 457.695 954.289 459.596 953.954 461.491L949.327 487.675C948.801 490.654 950.371 493.609 953.135 494.839V494.839C957.047 496.579 961.554 494.184 962.299 489.968L967.754 459.096C968.235 456.377 970.829 454.562 973.548 455.043L973.679 455.066C976.398 455.546 978.213 458.14 977.732 460.86L975.439 473.837C974.658 478.26 978.435 482.15 982.879 481.5V481.5C985.687 481.089 987.917 478.925 988.411 476.129L989.253 471.365C989.512 469.897 990.556 468.69 991.971 468.222V468.222C994.884 467.259 997.769 469.755 997.235 472.776L992.233 501.085C991.366 505.988 995.688 510.234 1000.57 509.282V509.282C1003.45 508.72 1005.69 506.443 1006.2 503.554L1016.38 445.976" stroke="#99DBC0" stroke-width="1.2"/>
<path d="M1022.31 431.694L1018.42 433.551C1015.57 434.915 1012.17 434.422 1009.81 432.302L1009.22 431.764C1007.23 429.97 1004.35 429.552 1001.93 430.707L1001.23 431.043C998.924 432.142 996.17 431.549 994.524 429.6V429.6C992.878 427.65 990.124 427.057 987.821 428.156L987.257 428.425C984.782 429.606 981.829 429.085 979.909 427.126L976.439 423.588" stroke="#99DBC0" stroke-width="1.2"/>
<path d="M972.592 428.473L967.89 430.717C965.588 431.816 962.833 431.223 961.187 429.273V429.273C959.541 427.323 956.787 426.73 954.484 427.829L953.921 428.098C951.445 429.28 948.493 428.758 946.572 426.8L943.102 423.261" stroke="#99DBC0" stroke-width="1.2"/>
<path d="M1090.97 366.85L1107.56 360.626" stroke="#99DBC0" stroke-width="1.2"/>
<path d="M1088.43 355.302L1101.88 350.256C1104.68 349.209 1107.79 350.624 1108.84 353.416L1144.67 448.92C1146.1 452.747 1144.16 457.013 1140.34 458.448L1130.63 462.089C1126.81 463.524 1122.54 461.586 1121.1 457.759L1085.28 362.255C1084.23 359.463 1085.64 356.349 1088.43 355.302Z" stroke="#99DBC0" stroke-width="1.2"/>
<rect x="967.434" y="291.817" width="161.869" height="52.5586" rx="13.4" transform="rotate(-20.5639 967.434 291.817)" fill="#E8F7F1" stroke="#99DBC0" stroke-width="1.2"/>
<path d="M1126.82 257.094L1133.27 254.675C1135.33 253.899 1137.64 254.947 1138.42 257.015L1151.85 292.833C1152.63 294.901 1151.58 297.207 1149.51 297.983L1087.28 321.331C1085.21 322.107 1084.16 324.413 1084.94 326.481L1094.86 352.921" stroke="#99DBC0" stroke-width="1.2"/>
<path d="M1018.05 274.259L1020.17 279.912" stroke="#99DBC0" stroke-width="1.2"/>
<path d="M1025.59 271.43L1028.77 279.91" stroke="#99DBC0" stroke-width="1.2"/>
<path d="M1010.52 277.086L1015.47 290.277" stroke="#99DBC0" stroke-width="1.2"/>
<path d="M1109.22 293.8L1103.92 279.667" stroke="#99DBC0" stroke-width="1.2"/>
<path d="M1101.69 296.626L1098.51 288.146" stroke="#99DBC0" stroke-width="1.2"/>
<path d="M1116.76 290.972L1114.64 285.318" stroke="#99DBC0" stroke-width="1.2"/>
<path d="M927.392 314.076C931.068 315.978 932.507 320.502 930.605 324.178C928.703 327.855 924.18 329.293 920.504 327.391C916.827 325.489 915.387 320.967 917.289 317.29C919.191 313.613 923.715 312.174 927.392 314.076Z" stroke="#99DBC0" stroke-width="1.2"/>
<path d="M892.962 337.283C894.586 338.123 895.221 340.121 894.381 341.745C893.541 343.369 891.544 344.004 889.92 343.164C888.296 342.324 887.661 340.326 888.501 338.703C889.341 337.079 891.338 336.443 892.962 337.283Z" fill="#99DBC0" stroke="#99DBC0" stroke-width="1.2"/>
</g>
<path d="M396.326 348.411C398.541 349.557 399.408 352.282 398.262 354.497C397.116 356.712 394.392 357.578 392.177 356.432C389.962 355.286 389.095 352.562 390.241 350.347C391.387 348.132 394.111 347.265 396.326 348.411Z" stroke="#99DBC0" stroke-width="1.2"/>
<path d="M759.365 441.844C758.21 442.51 756.742 442.491 755.256 441.821C753.771 441.151 752.317 439.846 751.278 438.046C750.239 436.246 749.836 434.335 749.998 432.714C750.161 431.092 750.879 429.812 752.033 429.145C753.188 428.479 754.656 428.497 756.142 429.167C757.626 429.837 759.081 431.141 760.12 432.941C761.16 434.741 761.562 436.653 761.399 438.274C761.237 439.896 760.519 441.177 759.365 441.844Z" stroke="#ACE2CC" stroke-width="1.2"/>
<path d="M753.166 440.387L737.263 449.568C735.483 450.596 733.3 450.641 731.479 449.687L731.285 449.586L731.294 449.367C731.378 447.313 732.509 445.445 734.289 444.417L750.192 435.235" stroke="#ACE2CC" stroke-width="1.2"/>
<path d="M605.263 426.542C606.11 428.221 605.956 430.266 604.92 432.256C603.885 434.245 601.987 436.131 599.453 437.41C596.919 438.689 594.274 439.095 592.059 438.747C589.843 438.398 588.106 437.307 587.259 435.629C586.413 433.951 586.566 431.905 587.602 429.915C588.637 427.926 590.535 426.04 593.069 424.761C595.603 423.483 598.248 423.076 600.463 423.424C602.679 423.773 604.416 424.865 605.263 426.542Z" stroke="#ACE2CC" stroke-width="1.2"/>
<path d="M602.648 434.863L614.308 457.966C615.235 459.801 615.157 461.983 614.102 463.748L613.363 464.984L611.93 464.844C609.883 464.644 608.082 463.411 607.156 461.576L595.496 438.473" stroke="#ACE2CC" stroke-width="1.2"/>
<path d="M271.337 14.7724C270.466 15.8912 269.013 16.4571 267.289 16.3914C265.566 16.3257 263.623 15.6256 261.89 14.276C260.157 12.9265 259.002 11.2136 258.516 9.55954C258.03 7.90425 258.223 6.35686 259.094 5.23807C259.965 4.11952 261.418 3.55417 263.142 3.61986C264.864 3.68557 266.808 4.38567 268.541 5.7352C270.274 7.08474 271.429 8.79759 271.914 10.4517C272.4 12.1068 272.208 13.6536 271.337 14.7724Z" stroke="#ACE2CC" stroke-width="1.2"/>
<path d="M264.681 15.7871L252.681 31.1957C251.418 32.8177 249.412 33.68 247.366 33.4809L246.96 33.4414L246.822 33.0568C246.127 31.1218 246.472 28.966 247.735 27.344L259.735 11.9354" stroke="#ACE2CC" stroke-width="1.2"/>
<path d="M415.477 429C424.035 433.949 426.961 444.898 422.013 453.456C417.065 462.013 406.115 464.94 397.558 459.992L320.915 415.676L338.834 384.685L415.477 429Z" stroke="#ACE2CC" stroke-width="1.2"/>
<circle cx="330.809" cy="400.727" r="17.899" transform="rotate(30.0367 330.809 400.727)" fill="#E8F7F1" stroke="#ACE2CC" stroke-width="1.2"/>
<circle cx="336.635" cy="404.091" r="11.7721" transform="rotate(30.0367 336.635 404.091)" fill="#ACE2CC"/>
</svg>
