<svg width="1221" height="506" viewBox="0 0 1221 506" fill="none" xmlns="http://www.w3.org/2000/svg">
<path d="M311.643 238.78L297.723 251.455M317.652 232.361L324.096 226.511L299.855 200.046C298.363 198.417 295.833 198.306 294.204 199.798L129.134 351C127.505 352.493 127.394 355.023 128.886 356.652L153.127 383.116L294.736 254.267" stroke="#99DBC0" stroke-width="1.2"/>
<path d="M139.052 341.914L144.104 347.429" stroke="#99DBC0" stroke-width="1.2"/>
<path d="M150.083 331.809L160.187 342.839" stroke="#99DBC0" stroke-width="1.2"/>
<path d="M161.11 321.709L166.162 327.225" stroke="#99DBC0" stroke-width="1.2"/>
<path d="M172.14 311.604L182.244 322.634" stroke="#99DBC0" stroke-width="1.2"/>
<path d="M183.177 301.492L188.229 307.007" stroke="#99DBC0" stroke-width="1.2"/>
<path d="M194.2 291.396L204.303 302.426" stroke="#99DBC0" stroke-width="1.2"/>
<path d="M205.233 281.29L210.285 286.805" stroke="#99DBC0" stroke-width="1.2"/>
<path d="M216.264 271.185L226.368 282.215" stroke="#99DBC0" stroke-width="1.2"/>
<path d="M227.295 261.082L232.347 266.597" stroke="#99DBC0" stroke-width="1.2"/>
<path d="M238.324 250.981L248.427 262.011" stroke="#99DBC0" stroke-width="1.2"/>
<path d="M249.355 240.878L254.407 246.394" stroke="#99DBC0" stroke-width="1.2"/>
<path d="M260.387 230.772L270.491 241.802" stroke="#99DBC0" stroke-width="1.2"/>
<path d="M271.413 220.672L276.465 226.187" stroke="#99DBC0" stroke-width="1.2"/>
<path d="M282.445 210.565L292.548 221.596" stroke="#99DBC0" stroke-width="1.2"/>
<path d="M38.7372 265.683L127.467 218.692C128.455 218.169 129.68 218.557 130.187 219.553L139.904 238.678C140.398 239.651 140.021 240.841 139.057 241.352L50.476 288.263C47.0185 290.094 42.7314 288.736 40.9592 285.248L35.7725 275.039C34.0423 271.634 35.3616 267.47 38.7372 265.683Z" stroke="#99DBC0" stroke-width="1.2"/>
<path d="M169.972 204.199L132.152 223.415L137.917 234.761L175.736 215.545" stroke="#99DBC0" stroke-width="1.2"/>
<path d="M220.427 232.744C221.237 233.374 221.117 234.633 220.202 235.098L195.612 247.591C194.689 248.06 193.593 247.399 193.578 246.364L193.392 234.04L193.386 233.604L192.97 233.476L189.65 232.45C189.282 232.337 188.977 232.076 188.807 231.731L165.268 183.861L165.254 183.833L165.238 183.806L162.892 180.08L162.835 179.99L162.752 179.925L138.948 161.452C137.731 160.508 138.708 158.578 140.189 158.999L181.368 170.744C185.556 171.938 189.044 174.85 190.965 178.758L211.32 220.153C211.509 220.538 211.512 220.989 211.327 221.376L210.041 224.063L209.833 224.498L210.214 224.795L220.427 232.744Z" stroke="#99DBC0" stroke-width="1.2"/>
<path d="M104.682 230.23L116.211 252.922" stroke="#99DBC0" stroke-width="1.2"/>
<path d="M216.62 230.454L193.928 241.983" stroke="#99DBC0" stroke-width="1.2"/>
<path d="M171.831 198.491L168.941 199.959C168.448 200.209 168.252 200.811 168.502 201.304L177.204 218.43C177.454 218.923 178.056 219.119 178.548 218.869L181.439 217.4" stroke="#99DBC0"/>
<path d="M211.163 251.649L216.025 247.195C217.044 246.263 218.625 246.332 219.558 247.35L221.447 249.413L212.898 257.244L211.008 255.181C210.076 254.163 210.145 252.582 211.163 251.649Z" stroke="#99DBC0"/>
<path d="M215.232 254.863L223.612 264.011M218.662 251.72L227.042 260.869" stroke="#99DBC0" stroke-width="1.2"/>
<path d="M192.49 96.1014C193.114 94.7455 195.143 95.177 195.162 96.6694L195.197 99.5992C195.298 107.94 200.192 115.477 207.77 118.962L210.432 120.186C211.788 120.81 211.357 122.84 209.864 122.858L206.934 122.893C198.594 122.994 191.056 127.888 187.571 135.466L186.347 138.128C185.724 139.484 183.694 139.053 183.675 137.56L183.64 134.631C183.539 126.29 178.645 118.753 171.067 115.267L168.405 114.044C167.049 113.42 167.481 111.39 168.973 111.372L171.903 111.337C180.243 111.236 187.781 106.342 191.266 98.7635L192.49 96.1014Z" stroke="#99DBC0" stroke-width="1.2"/>
<path d="M215.868 149.248C218.143 149.732 219.596 151.969 219.112 154.244C218.628 156.519 216.392 157.972 214.116 157.488C211.841 157.004 210.389 154.767 210.872 152.492C211.356 150.217 213.593 148.765 215.868 149.248Z" stroke="#99DBC0" stroke-width="1.2"/>
<path d="M1005.54 171.91L1021 183.382" stroke="#99DBC0" stroke-width="1.2"/>
<path d="M1041.79 132.427L1049.01 137.79C1051.42 139.574 1051.91 142.974 1050.11 145.369L1019.42 186.269C1018.3 187.765 1016.18 188.073 1014.67 186.959L1004.23 179.211C1002.72 178.088 1002.41 175.948 1003.54 174.44L1034.25 133.522C1036.03 131.146 1039.4 130.657 1041.79 132.427Z" stroke="#99DBC0" stroke-width="1.2"/>
<path d="M1042.51 133.395L1072.24 93.4905L1073.83 88.0436L1079.11 80.9209L1087.54 87.1784L1082.26 94.3011L1077.51 97.4014L1047.78 137.306" stroke="#99DBC0" stroke-width="1.2"/>
<path d="M1066.25 58.4492V58.4492C1065.78 56.9784 1066.59 55.4029 1068.06 54.9302L1122.26 37.5074C1125.42 36.4935 1128.8 38.2289 1129.81 41.3837L1156.1 123.165C1157.11 126.32 1155.38 129.699 1152.22 130.713L1101.06 147.156C1097.91 148.17 1094.53 146.435 1093.52 143.28L1079.73 100.392M1071.39 74.4273L1073.74 81.7506" stroke="#99DBC0" stroke-width="1.2"/>
<circle cx="5.59444" cy="5.59444" r="4.99444" transform="matrix(0.889563 0.456813 -0.456822 0.889558 1118.75 42.0874)" stroke="#99DBC0" stroke-width="1.2"/>
<path d="M1119.45 73.9168C1129 78.8221 1132.77 90.5425 1127.87 100.094C1122.96 109.646 1111.24 113.413 1101.69 108.508C1092.14 103.603 1088.37 91.8828 1093.27 82.3308C1098.18 72.7788 1109.9 69.0116 1119.45 73.9168Z" stroke="#99DBC0" stroke-width="1.2"/>
<path d="M1123.4 45.2651L1119.25 53.3521" stroke="#99DBC0" stroke-width="1.2"/>
<path d="M1103.29 91.6766C1102.21 91.1223 1100.88 91.5482 1100.33 92.6275C1099.77 93.707 1100.2 95.0315 1101.28 95.5858C1102.36 96.1399 1103.68 95.7143 1104.24 94.635C1104.79 93.5557 1104.37 92.231 1103.29 91.6766Z" fill="#99DBC0" stroke="#99DBC0" stroke-width="1.2"/>
<path d="M1118.94 86.6459C1117.86 86.0916 1116.53 86.5175 1115.98 87.5967C1115.43 88.6762 1115.85 90.0007 1116.93 90.5551C1118.01 91.1092 1119.33 90.6836 1119.89 89.6042C1120.44 88.5249 1120.02 87.2003 1118.94 86.6459Z" fill="#99DBC0" stroke="#99DBC0" stroke-width="1.2"/>
<circle cx="5.59444" cy="5.59444" r="4.99444" transform="matrix(0.889563 0.456813 -0.456822 0.889558 1100.88 126.647)" stroke="#99DBC0" stroke-width="1.2"/>
<path d="M1105.54 129.825L1101.39 137.912" stroke="#99DBC0" stroke-width="1.2"/>
<circle cx="5.59444" cy="5.59444" r="4.99444" transform="matrix(0.889563 0.456813 -0.456822 0.889558 1141.7 113.527)" stroke="#99DBC0" stroke-width="1.2"/>
<path d="M1146.36 116.704L1142.21 124.791" stroke="#99DBC0" stroke-width="1.2"/>
<circle cx="5.59444" cy="5.59444" r="4.99444" transform="matrix(0.889562 0.456814 -0.456822 0.889558 1061.95 60.3394)" stroke="#99DBC0" stroke-width="1.2"/>
<path d="M1066.6 63.5161L1062.45 71.6031" stroke="#99DBC0" stroke-width="1.2"/>
<path d="M1067.98 64.4868L1081.75 60.0794C1082.42 59.8658 1083.15 59.9995 1083.7 60.4358V60.4358C1084.36 60.9633 1084.64 61.839 1084.41 62.6542V62.6542C1084.22 63.3275 1083.71 63.8622 1083.04 64.0791L1069.34 68.5446" stroke="#99DBC0" stroke-width="1.2"/>
<path d="M1156.03 151.343C1155.23 150.08 1156.7 148.614 1157.96 149.413L1161.89 151.903C1167.63 155.543 1174.95 155.552 1180.7 151.927L1184.63 149.449C1185.89 148.653 1187.36 150.122 1186.56 151.383L1184.07 155.308C1180.43 161.047 1180.42 168.371 1184.05 174.121L1186.53 178.051C1187.32 179.314 1185.85 180.78 1184.59 179.981L1180.67 177.492C1174.93 173.852 1167.6 173.842 1161.86 177.467L1157.92 179.945C1156.66 180.741 1155.2 179.272 1155.99 178.011L1158.48 174.086C1162.12 168.346 1162.13 161.023 1158.51 155.274L1156.03 151.343Z" stroke="#99DBC0" stroke-width="1.2"/>
<path d="M1129.21 161.021C1130.27 160.679 1131.41 161.264 1131.76 162.329C1132.1 163.393 1131.51 164.533 1130.45 164.875C1129.38 165.217 1128.24 164.632 1127.9 163.568C1127.56 162.503 1128.14 161.363 1129.21 161.021Z" fill="#99DBC0" stroke="#99DBC0" stroke-width="1.2"/>
<mask id="mask0_3209_180" style="mask-type:alpha" maskUnits="userSpaceOnUse" x="802" y="214" width="377" height="292">
<rect x="802.073" y="214.659" width="376.624" height="291.136" fill="white"/>
</mask>
<g mask="url(#mask0_3209_180)">
<path d="M915.996 410.267L895.126 528.365M1042.69 432.656L1021.82 550.754" stroke="#99DBC0" stroke-width="1.2"/>
<path d="M982.328 404.578C1000.38 407.769 1016.32 412.85 1027.48 418.471C1033.07 421.283 1037.43 424.214 1040.27 427.087C1043.12 429.974 1044.33 432.696 1043.9 435.123C1043.47 437.551 1041.4 439.693 1037.73 441.428C1034.08 443.155 1028.98 444.415 1022.77 445.142C1010.36 446.596 993.644 445.908 975.588 442.717C957.533 439.526 941.598 434.445 930.433 428.825C924.847 426.013 920.487 423.081 917.651 420.208C914.801 417.322 913.587 414.599 914.016 412.171C914.446 409.743 916.519 407.602 920.185 405.867C923.834 404.14 928.935 402.88 935.146 402.153C947.561 400.7 964.273 401.388 982.328 404.578Z" fill="#E8F7F1" stroke="#99DBC0" stroke-width="1.2"/>
<path d="M915.174 418.18L916.918 408.316C922.972 374.053 955.656 351.185 989.919 357.24L991.987 357.605C1026.25 363.66 1049.12 396.344 1043.06 430.607L1041.32 440.472" stroke="#99DBC0" stroke-width="1.2"/>
<path d="M1034.21 442.42C1036.05 432.027 1012.11 419.108 980.742 413.565C949.375 408.022 922.458 411.954 920.621 422.347" stroke="#99DBC0" stroke-width="1.2"/>
<path d="M934.909 430.708L928.359 467.776C927.784 471.028 929.53 474.247 932.569 475.538V475.538C936.767 477.323 941.534 474.737 942.328 470.245L944.178 459.777C944.727 456.668 948.193 455.045 950.933 456.613V456.613C952.603 457.568 953.493 459.469 953.158 461.364L948.531 487.548C948.005 490.527 949.575 493.482 952.339 494.712V494.712C956.251 496.453 960.758 494.057 961.503 489.841L966.958 458.969C967.439 456.25 970.033 454.435 972.752 454.916L972.883 454.939C975.602 455.419 977.417 458.013 976.936 460.733L974.643 473.71C973.862 478.133 977.639 482.023 982.083 481.373V481.373C984.891 480.962 987.121 478.798 987.615 476.002L988.457 471.238C988.716 469.77 989.76 468.563 991.176 468.095V468.095C994.088 467.132 996.973 469.628 996.439 472.649L991.437 500.958C990.57 505.861 994.892 510.107 999.779 509.155V509.155C1002.66 508.593 1004.9 506.316 1005.41 503.427L1015.58 445.849" stroke="#99DBC0" stroke-width="1.2"/>
<path d="M1021.52 431.567L1017.63 433.424C1014.77 434.788 1011.37 434.295 1009.02 432.175L1008.42 431.637C1006.43 429.842 1003.56 429.425 1001.14 430.58L1000.43 430.916C998.128 432.015 995.374 431.422 993.728 429.473V429.473C992.082 427.523 989.328 426.93 987.025 428.029L986.461 428.298C983.986 429.479 981.033 428.958 979.113 426.999L975.643 423.461" stroke="#99DBC0" stroke-width="1.2"/>
<path d="M971.796 428.346L967.094 430.59C964.792 431.689 962.037 431.096 960.391 429.146V429.146C958.745 427.196 955.991 426.603 953.689 427.702L953.125 427.971C950.649 429.153 947.697 428.631 945.777 426.673L942.306 423.134" stroke="#99DBC0" stroke-width="1.2"/>
<path d="M1090.18 366.723L1106.77 360.499" stroke="#99DBC0" stroke-width="1.2"/>
<path d="M1087.64 355.175L1101.09 350.13C1103.88 349.082 1106.99 350.497 1108.04 353.289L1145.27 452.538C1145.93 454.297 1145.04 456.257 1143.29 456.917L1126.09 463.367C1124.33 464.027 1122.37 463.136 1121.71 461.378L1084.48 362.128C1083.43 359.336 1084.85 356.223 1087.64 355.175Z" stroke="#99DBC0" stroke-width="1.2"/>
<rect x="966.637" y="291.69" width="161.869" height="52.5586" rx="13.4" transform="rotate(-20.5639 966.637 291.69)" fill="#E8F7F1" stroke="#99DBC0" stroke-width="1.2"/>
<path d="M1126.02 256.968L1132.47 254.548C1134.54 253.772 1136.84 254.82 1137.62 256.888L1151.06 292.707C1151.83 294.775 1150.79 297.081 1148.72 297.857L1086.48 321.204C1084.41 321.98 1083.37 324.286 1084.14 326.354L1094.06 352.794" stroke="#99DBC0" stroke-width="1.2"/>
<path d="M1017.26 274.132L1019.38 279.786" stroke="#99DBC0" stroke-width="1.2"/>
<path d="M1024.8 271.304L1027.98 279.784" stroke="#99DBC0" stroke-width="1.2"/>
<path d="M1009.72 276.959L1014.67 290.151" stroke="#99DBC0" stroke-width="1.2"/>
<path d="M1108.42 293.673L1103.12 279.54" stroke="#99DBC0" stroke-width="1.2"/>
<path d="M1100.89 296.499L1097.71 288.019" stroke="#99DBC0" stroke-width="1.2"/>
<path d="M1115.96 290.845L1113.84 285.192" stroke="#99DBC0" stroke-width="1.2"/>
<path d="M926.595 313.949C930.272 315.851 931.711 320.374 929.809 324.051C927.907 327.728 923.384 329.166 919.707 327.264C916.03 325.362 914.591 320.839 916.493 317.162C918.395 313.485 922.918 312.047 926.595 313.949Z" stroke="#99DBC0" stroke-width="1.2"/>
<path d="M892.166 337.155C893.79 337.995 894.425 339.993 893.585 341.617C892.745 343.241 890.748 343.876 889.124 343.036C887.5 342.196 886.865 340.198 887.705 338.575C888.545 336.951 890.542 336.315 892.166 337.155Z" fill="#99DBC0" stroke="#99DBC0" stroke-width="1.2"/>
</g>
<path d="M395.53 348.284C397.745 349.43 398.612 352.154 397.466 354.369C396.32 356.584 393.595 357.451 391.38 356.305C389.166 355.159 388.299 352.435 389.444 350.22C390.59 348.005 393.315 347.138 395.53 348.284Z" stroke="#99DBC0" stroke-width="1.2"/>
<path d="M758.568 441.717C757.414 442.384 755.945 442.364 754.459 441.694C752.975 441.025 751.521 439.72 750.481 437.92C749.442 436.12 749.039 434.208 749.201 432.587C749.364 430.966 750.082 429.685 751.237 429.018C752.391 428.352 753.859 428.371 755.345 429.04C756.83 429.71 758.284 431.015 759.323 432.815C760.363 434.615 760.765 436.527 760.603 438.147C760.44 439.769 759.723 441.05 758.568 441.717Z" stroke="#ACE2CC" stroke-width="1.2"/>
<path d="M752.369 440.26L736.466 449.442C734.686 450.47 732.503 450.514 730.682 449.561L730.488 449.459L730.497 449.24C730.582 447.186 731.712 445.318 733.492 444.29L749.395 435.109" stroke="#ACE2CC" stroke-width="1.2"/>
<path d="M604.466 426.416C605.313 428.094 605.159 430.139 604.123 432.129C603.088 434.118 601.19 436.004 598.656 437.283C596.122 438.562 593.477 438.969 591.262 438.62C589.046 438.271 587.31 437.18 586.463 435.502C585.616 433.824 585.769 431.778 586.805 429.789C587.84 427.8 589.739 425.913 592.272 424.635C594.806 423.356 597.451 422.949 599.666 423.298C601.882 423.646 603.619 424.738 604.466 426.416Z" stroke="#ACE2CC" stroke-width="1.2"/>
<path d="M601.852 434.736L613.512 457.839C614.438 459.675 614.36 461.856 613.306 463.621L612.567 464.857L611.133 464.717C609.087 464.518 607.286 463.284 606.359 461.449L594.699 438.346" stroke="#ACE2CC" stroke-width="1.2"/>
<path d="M270.54 14.6457C269.669 15.7645 268.216 16.3304 266.492 16.2647C264.769 16.1989 262.826 15.4989 261.093 14.1493C259.36 12.7998 258.205 11.0869 257.719 9.43283C257.233 7.77754 257.426 6.23015 258.297 5.11136C259.168 3.99281 260.621 3.42746 262.345 3.49315C264.068 3.55887 266.011 4.25896 267.744 5.60849C269.477 6.95803 270.632 8.67088 271.118 10.325C271.604 11.9801 271.411 13.5269 270.54 14.6457Z" stroke="#ACE2CC" stroke-width="1.2"/>
<path d="M263.883 15.6602L251.884 31.0687C250.621 32.6907 248.615 33.5531 246.569 33.354L246.162 33.3144L246.024 32.9298C245.33 30.9948 245.675 28.839 246.938 27.217L258.937 11.8085" stroke="#ACE2CC" stroke-width="1.2"/>
<path d="M414.681 428.873C423.238 433.821 426.165 444.771 421.217 453.329C416.268 461.886 405.319 464.813 396.761 459.864L320.119 415.549L338.038 384.558L414.681 428.873Z" stroke="#ACE2CC" stroke-width="1.2"/>
<circle cx="330.013" cy="400.6" r="17.899" transform="rotate(30.0367 330.013 400.6)" fill="#E8F7F1" stroke="#ACE2CC" stroke-width="1.2"/>
<circle cx="335.84" cy="403.965" r="11.7721" transform="rotate(30.0367 335.84 403.965)" fill="#ACE2CC"/>
</svg>
