<svg width="112" height="27" viewBox="0 0 112 27" fill="none" xmlns="http://www.w3.org/2000/svg">
<path d="M85.2914 2.75077C85.0043 2.75077 84.7549 2.8087 84.5434 2.92455C84.3369 3.0404 84.1681 3.19655 84.0372 3.39299C83.9062 3.5844 83.808 3.80351 83.7425 4.05032C83.6821 4.29714 83.6518 4.54899 83.6518 4.80588C83.6518 5.06277 83.6821 5.31462 83.7425 5.56144C83.808 5.80825 83.9062 6.02988 84.0372 6.22632C84.1681 6.41773 84.3369 6.57136 84.5434 6.68721C84.7549 6.80306 85.0043 6.86099 85.2914 6.86099C85.5785 6.86099 85.8253 6.80306 86.0318 6.68721C86.2434 6.57136 86.4146 6.41773 86.5456 6.22632C86.6766 6.02988 86.7723 5.80825 86.8327 5.56144C86.8982 5.31462 86.9309 5.06277 86.9309 4.80588C86.9309 4.54899 86.8982 4.29714 86.8327 4.05032C86.7723 3.80351 86.6766 3.5844 86.5456 3.39299C86.4146 3.19655 86.2434 3.0404 86.0318 2.92455C85.8253 2.8087 85.5785 2.75077 85.2914 2.75077ZM85.2914 1.9801C85.6943 1.9801 86.0545 2.05566 86.3718 2.20677C86.6942 2.35788 86.9662 2.56188 87.1878 2.81877C87.4095 3.07566 87.5782 3.37536 87.694 3.71788C87.8149 4.0604 87.8754 4.42307 87.8754 4.80588C87.8754 5.19373 87.8149 5.55892 87.694 5.90144C87.5782 6.24395 87.4095 6.54366 87.1878 6.80055C86.9662 7.05744 86.6942 7.26144 86.3718 7.41255C86.0545 7.55862 85.6943 7.63166 85.2914 7.63166C84.8884 7.63166 84.5258 7.55862 84.2034 7.41255C83.886 7.26144 83.6166 7.05744 83.3949 6.80055C83.1733 6.54366 83.002 6.24395 82.8812 5.90144C82.7653 5.55892 82.7074 5.19373 82.7074 4.80588C82.7074 4.42307 82.7653 4.0604 82.8812 3.71788C83.002 3.37536 83.1733 3.07566 83.3949 2.81877C83.6166 2.56188 83.886 2.35788 84.2034 2.20677C84.5258 2.05566 84.8884 1.9801 85.2914 1.9801Z" fill="white"/>
<path d="M77.504 2.10852H78.5014L80.9645 6.08274H80.9796V2.10852H81.8787V7.50319H80.8814L78.4258 3.53652H78.4031V7.50319H77.504V2.10852Z" fill="white"/>
<path d="M71.1004 2.10852H72.0448V6.68719H74.7875V7.50319H71.1004V2.10852Z" fill="white"/>
<path d="M66.3413 2.10852H70.2249V2.92452H67.2857V4.33741H70.0057V5.10808H67.2857V6.68719H70.2777V7.50319H66.3413V2.10852Z" fill="white"/>
<path d="M61.1104 2.10852H62.0926L63.445 6.37741H63.4601L64.8428 2.10852H65.8024L63.9588 7.50319H62.9086L61.1104 2.10852Z" fill="white"/>
<path d="M59.6195 2.10855H60.564V7.50322H59.6195V2.10855ZM60.3071 0.506775H61.3271L60.2542 1.58722H59.6271L60.3071 0.506775Z" fill="white"/>
<path d="M54.129 2.10852H55.1264L57.5895 6.08274H57.6046V2.10852H58.5037V7.50319H57.5064L55.0508 3.53652H55.0282V7.50319H54.129V2.10852Z" fill="white"/>
<path d="M50.7233 2.75077C50.4362 2.75077 50.1868 2.8087 49.9753 2.92455C49.7687 3.0404 49.6 3.19655 49.469 3.39299C49.3381 3.5844 49.2399 3.80351 49.1744 4.05032C49.1139 4.29714 49.0837 4.54899 49.0837 4.80588C49.0837 5.06277 49.1139 5.31462 49.1744 5.56144C49.2399 5.80825 49.3381 6.02988 49.469 6.22632C49.6 6.41773 49.7687 6.57136 49.9753 6.68721C50.1868 6.80306 50.4362 6.86099 50.7233 6.86099C51.0104 6.86099 51.2572 6.80306 51.4637 6.68721C51.6753 6.57136 51.8465 6.41773 51.9775 6.22632C52.1085 6.02988 52.2042 5.80825 52.2646 5.56144C52.3301 5.31462 52.3628 5.06277 52.3628 4.80588C52.3628 4.54899 52.3301 4.29714 52.2646 4.05032C52.2042 3.80351 52.1085 3.5844 51.9775 3.39299C51.8465 3.19655 51.6753 3.0404 51.4637 2.92455C51.2572 2.8087 51.0104 2.75077 50.7233 2.75077ZM50.7233 1.9801C51.1262 1.9801 51.4864 2.05566 51.8037 2.20677C52.1261 2.35788 52.3981 2.56188 52.6197 2.81877C52.8413 3.07566 53.0101 3.37536 53.1259 3.71788C53.2468 4.0604 53.3073 4.42307 53.3073 4.80588C53.3073 5.19373 53.2468 5.55892 53.1259 5.90144C53.0101 6.24395 52.8413 6.54366 52.6197 6.80055C52.3981 7.05744 52.1261 7.26144 51.8037 7.41255C51.4864 7.55862 51.1262 7.63166 50.7233 7.63166C50.3203 7.63166 49.9576 7.55862 49.6353 7.41255C49.3179 7.26144 49.0485 7.05744 48.8268 6.80055C48.6052 6.54366 48.4339 6.24395 48.313 5.90144C48.1972 5.55892 48.1393 5.19373 48.1393 4.80588C48.1393 4.42307 48.1972 4.0604 48.313 3.71788C48.4339 3.37536 48.6052 3.07566 48.8268 2.81877C49.0485 2.56188 49.3179 2.35788 49.6353 2.20677C49.9576 2.05566 50.3203 1.9801 50.7233 1.9801Z" fill="white"/>
<path d="M43.3869 2.10852H45.7669C46.1497 2.10852 46.462 2.16393 46.7038 2.27474C46.9455 2.38556 47.1319 2.52408 47.2629 2.6903C47.3938 2.85652 47.482 3.03785 47.5273 3.2343C47.5777 3.43074 47.6029 3.61208 47.6029 3.7783C47.6029 3.94452 47.5777 4.12585 47.5273 4.3223C47.482 4.51371 47.3938 4.69252 47.2629 4.85874C47.1319 5.02496 46.9455 5.16348 46.7038 5.2743C46.462 5.38008 46.1497 5.43296 45.7669 5.43296H44.3313V7.50319H43.3869V2.10852ZM44.3313 4.6623H45.714C45.8198 4.6623 45.9281 4.64719 46.0389 4.61696C46.1497 4.58674 46.2504 4.53889 46.3411 4.47341C46.4368 4.40289 46.5124 4.31222 46.5678 4.20141C46.6282 4.08556 46.6584 3.942 46.6584 3.77074C46.6584 3.59445 46.6332 3.44837 46.5829 3.33252C46.5325 3.21667 46.4645 3.126 46.3789 3.06052C46.2932 2.99 46.195 2.94215 46.0842 2.91696C45.9734 2.89178 45.855 2.87919 45.7291 2.87919H44.3313V4.6623Z" fill="white"/>
<path d="M39.1071 5.70499C39.1071 5.91151 39.1424 6.08781 39.2129 6.23388C39.2834 6.37995 39.3816 6.50084 39.5076 6.59655C39.6335 6.68721 39.7771 6.75521 39.9382 6.80055C40.1045 6.84084 40.2833 6.86099 40.4747 6.86099C40.6812 6.86099 40.8575 6.83832 41.0036 6.79299C41.1496 6.74262 41.268 6.67966 41.3587 6.6041C41.4493 6.52855 41.5148 6.44292 41.5551 6.34721C41.5954 6.24647 41.6156 6.14573 41.6156 6.04499C41.6156 5.83847 41.5677 5.68736 41.472 5.59166C41.3813 5.49092 41.2806 5.4204 41.1698 5.3801C40.9784 5.30958 40.7542 5.2441 40.4973 5.18366C40.2455 5.11818 39.9332 5.03506 39.5605 4.93432C39.3288 4.87388 39.1348 4.79581 38.9787 4.7001C38.8276 4.59936 38.7067 4.48855 38.616 4.36766C38.5253 4.24677 38.4599 4.11832 38.4196 3.98232C38.3843 3.84632 38.3667 3.70781 38.3667 3.56677C38.3667 3.29477 38.4221 3.06055 38.5329 2.8641C38.6488 2.66262 38.7999 2.4964 38.9862 2.36544C39.1726 2.23447 39.3842 2.13877 39.6209 2.07832C39.8576 2.01284 40.0969 1.9801 40.3387 1.9801C40.6208 1.9801 40.8852 2.01788 41.132 2.09344C41.3839 2.16395 41.603 2.27225 41.7893 2.41832C41.9808 2.5644 42.1319 2.74573 42.2427 2.96232C42.3535 3.17388 42.4089 3.42069 42.4089 3.70277H41.4645C41.4393 3.35521 41.3209 3.11092 41.1093 2.96988C40.8978 2.82381 40.6283 2.75077 40.3009 2.75077C40.1901 2.75077 40.0768 2.76336 39.9609 2.78855C39.8451 2.80869 39.7393 2.84647 39.6436 2.90188C39.5479 2.95225 39.4673 3.02277 39.4018 3.11344C39.3413 3.2041 39.3111 3.31744 39.3111 3.45344C39.3111 3.64484 39.3691 3.79595 39.4849 3.90677C39.6058 4.01255 39.7619 4.09314 39.9533 4.14855C39.9735 4.15358 40.0516 4.17625 40.1876 4.21655C40.3286 4.25181 40.4848 4.2921 40.656 4.33744C40.8273 4.38277 40.9935 4.4281 41.1547 4.47344C41.3209 4.51373 41.4393 4.54395 41.5098 4.5641C41.6861 4.61951 41.8397 4.69507 41.9707 4.79077C42.1016 4.88647 42.2099 4.99729 42.2956 5.12321C42.3862 5.2441 42.4517 5.37507 42.492 5.5161C42.5373 5.65714 42.56 5.79818 42.56 5.93921C42.56 6.24144 42.497 6.50084 42.3711 6.71744C42.2502 6.92899 42.089 7.10277 41.8876 7.23877C41.6861 7.37477 41.4569 7.47299 41.2 7.53343C40.9431 7.59892 40.6812 7.63166 40.4142 7.63166C40.107 7.63166 39.8173 7.59388 39.5453 7.51832C39.2733 7.44277 39.0366 7.32692 38.8351 7.17077C38.6336 7.01462 38.4725 6.81566 38.3516 6.57388C38.2307 6.32706 38.1677 6.03744 38.1627 5.70499H39.1071Z" fill="white"/>
<path d="M36.3847 2.10852H37.3291V7.50319H36.3847V2.10852Z" fill="white"/>
<path d="M30.932 2.10852H33.1685C33.5815 2.10852 33.9391 2.17904 34.2414 2.32008C34.5436 2.46111 34.7904 2.65504 34.9818 2.90185C35.1732 3.14363 35.3142 3.42822 35.4049 3.75563C35.5006 4.08304 35.5485 4.43311 35.5485 4.80585C35.5485 5.17859 35.5006 5.52867 35.4049 5.85608C35.3142 6.18348 35.1732 6.47059 34.9818 6.71741C34.7904 6.95919 34.5436 7.15059 34.2414 7.29163C33.9391 7.43267 33.5815 7.50319 33.1685 7.50319H30.932V2.10852ZM31.8765 6.73252H32.8058C33.1735 6.73252 33.4732 6.68467 33.7049 6.58896C33.9417 6.48822 34.1255 6.35222 34.2565 6.18096C34.3925 6.00467 34.4831 5.80067 34.5285 5.56896C34.5788 5.33222 34.604 5.07785 34.604 4.80585C34.604 4.53385 34.5788 4.282 34.5285 4.0503C34.4831 3.81356 34.3925 3.60956 34.2565 3.4383C34.1255 3.262 33.9417 3.126 33.7049 3.0303C33.4732 2.92956 33.1735 2.87919 32.8058 2.87919H31.8765V6.73252Z" fill="white"/>
<path d="M56.3219 15.3101C54.014 15.3101 52.1869 17.034 52.1869 19.4283C52.1869 21.7268 54.014 23.5465 56.3219 23.5465C58.6297 23.5465 60.4568 21.8226 60.4568 19.4283C60.4568 16.9382 58.6297 15.3101 56.3219 15.3101ZM56.3219 21.8226C55.0718 21.8226 54.014 20.7691 54.014 19.3325C54.014 17.8959 55.0718 16.8424 56.3219 16.8424C57.572 16.8424 58.6297 17.8002 58.6297 19.3325C58.6297 20.7691 57.572 21.8226 56.3219 21.8226ZM47.3788 15.3101C45.071 15.3101 43.2439 17.034 43.2439 19.4283C43.2439 21.7268 45.071 23.5465 47.3788 23.5465C49.6867 23.5465 51.5138 21.8226 51.5138 19.4283C51.5138 16.9382 49.6867 15.3101 47.3788 15.3101ZM47.3788 21.8226C46.1287 21.8226 45.071 20.7691 45.071 19.3325C45.071 17.8959 46.1287 16.8424 47.3788 16.8424C48.6289 16.8424 49.6867 17.8002 49.6867 19.3325C49.6867 20.7691 48.6289 21.8226 47.3788 21.8226ZM36.7049 16.5551V18.279H40.8398C40.7437 19.2368 40.359 20.0029 39.8782 20.4818C39.3013 21.0564 38.3396 21.7268 36.7049 21.7268C34.1085 21.7268 32.1853 19.7156 32.1853 17.1298C32.1853 14.5439 34.2047 12.5327 36.7049 12.5327C38.0512 12.5327 39.1089 13.1073 39.8782 13.7777L41.1283 12.5327C40.0706 11.575 38.7243 10.8088 36.8011 10.8088C33.3392 10.8088 30.3582 13.682 30.3582 17.1298C30.3582 20.5776 33.3392 23.4507 36.8011 23.4507C38.7243 23.4507 40.0706 22.8761 41.2245 21.6311C42.3784 20.4818 42.7631 18.8537 42.7631 17.6086C42.7631 17.2255 42.7631 16.8424 42.6669 16.5551H36.7049ZM80.3623 17.8959C79.9776 16.9382 79.016 15.3101 76.9004 15.3101C74.7849 15.3101 73.054 16.9382 73.054 19.4283C73.054 21.7268 74.7849 23.5465 77.0928 23.5465C78.9198 23.5465 80.0738 22.3973 80.4584 21.7268L79.1122 20.7691C78.6314 21.4395 78.0544 21.9184 77.0928 21.9184C76.1312 21.9184 75.5542 21.5353 75.0734 20.6733L80.5546 18.3748L80.3623 17.8959ZM74.7849 19.2368C74.7849 17.7044 76.035 16.8424 76.9004 16.8424C77.5736 16.8424 78.2467 17.2255 78.439 17.7044L74.7849 19.2368ZM70.2653 23.1634H72.0924V11.1919H70.2653V23.1634ZM67.3804 16.172C66.8996 15.6932 66.1304 15.2143 65.1687 15.2143C63.1493 15.2143 61.2261 17.034 61.2261 19.3325C61.2261 21.6311 63.0532 23.355 65.1687 23.355C66.1304 23.355 66.8996 22.8761 67.2843 22.3973H67.3804V22.9719C67.3804 24.5042 66.515 25.3662 65.1687 25.3662C64.111 25.3662 63.3417 24.6 63.1493 23.9296L61.6108 24.6C62.0916 25.6535 63.2455 26.9943 65.2649 26.9943C67.3805 26.9943 69.1114 25.7493 69.1114 22.7803V15.5016H67.3804V16.172ZM65.2649 21.8226C64.0148 21.8226 62.957 20.7691 62.957 19.3325C62.957 17.8959 64.0148 16.8424 65.2649 16.8424C66.515 16.8424 67.4766 17.8959 67.4766 19.3325C67.4766 20.7691 66.515 21.8226 65.2649 21.8226ZM88.7283 11.1919H84.4011V23.1634H86.2281V18.6621H88.7283C90.7477 18.6621 92.671 17.2255 92.671 14.927C92.671 12.6285 90.7477 11.1919 88.7283 11.1919ZM88.8245 16.9382H86.2281V12.82H88.8245C90.1707 12.82 90.94 13.9693 90.94 14.8312C90.8439 15.8847 90.0746 16.9382 88.8245 16.9382ZM99.8831 15.2143C98.5368 15.2143 97.1905 15.7889 96.7097 17.034L98.3445 17.7044C98.7291 17.034 99.3061 16.8424 99.9792 16.8424C100.941 16.8424 101.806 17.4171 101.902 18.3748V18.4706C101.614 18.279 100.845 17.9917 100.075 17.9917C98.3445 17.9917 96.6136 18.9494 96.6136 20.6733C96.6136 22.3015 98.056 23.355 99.5946 23.355C100.845 23.355 101.422 22.7803 101.902 22.2057H101.999V23.1634H103.73V18.5664C103.537 16.4594 101.902 15.2143 99.8831 15.2143ZM99.6907 21.8226C99.1138 21.8226 98.2483 21.5353 98.2483 20.7691C98.2483 19.8114 99.3061 19.5241 100.172 19.5241C100.941 19.5241 101.326 19.7156 101.806 19.9072C101.614 21.0564 100.652 21.8226 99.6907 21.8226ZM109.788 15.5016L107.768 20.6733H107.672L105.557 15.5016H103.633L106.807 22.7803L104.98 26.8028H106.807L111.711 15.5016H109.788ZM93.6326 23.1634H95.4596V11.1919H93.6326V23.1634Z" fill="white"/>
<path d="M0.836535 1.61469C0.54805 1.902 0.451889 2.38086 0.451889 2.9555V24.1212C0.451889 24.6959 0.644212 25.1747 0.932697 25.462L1.02886 25.5578L12.9529 13.682V13.4905L0.836535 1.61469Z" fill="url(#paint0_linear_7091_12000)"/>
<path d="M16.7994 17.7044L12.8567 13.7778V13.4905L16.7994 9.56378L16.8955 9.65955L21.6074 12.3412C22.9537 13.1074 22.9537 14.3524 21.6074 15.1186L16.7994 17.7044Z" fill="url(#paint1_linear_7091_12000)"/>
<path d="M16.8955 17.6087L12.8567 13.5862L0.836533 25.5578C1.31734 26.0367 1.99047 26.0367 2.85593 25.6536L16.8955 17.6087Z" fill="url(#paint2_linear_7091_12000)"/>
<path d="M16.8955 9.56375L2.85593 1.61463C1.99047 1.13577 1.31734 1.23154 0.836533 1.71041L12.8567 13.5862L16.8955 9.56375Z" fill="url(#paint3_linear_7091_12000)"/>
<path opacity="0.2" d="M16.7994 17.513L2.85593 25.3663C2.08663 25.8452 1.4135 25.7494 0.932695 25.3663L0.836533 25.4621L0.932695 25.5579C1.4135 25.941 2.08663 26.0368 2.85593 25.5579L16.7994 17.513Z" fill="black"/>
<path opacity="0.12" d="M0.836535 25.3663C0.54805 25.0789 0.451889 24.6001 0.451889 24.0254V24.1212C0.451889 24.6959 0.644212 25.1747 0.932697 25.462V25.3663H0.836535ZM21.6074 14.8313L16.7994 17.5129L16.8955 17.6087L21.6074 14.9271C22.2806 14.544 22.5691 14.0651 22.5691 13.5862C22.5691 14.0651 22.1844 14.4482 21.6074 14.8313Z" fill="black"/>
<path opacity="0.25" d="M2.85593 1.71052L21.6074 12.3413C22.1844 12.7244 22.5691 13.1075 22.5691 13.5863C22.5691 13.1075 22.2806 12.6286 21.6074 12.2455L2.85593 1.61475C1.50967 0.84857 0.451889 1.4232 0.451889 2.95556V3.05134C0.451889 1.61475 1.50967 0.944342 2.85593 1.71052Z" fill="white"/>
<defs>
<linearGradient id="paint0_linear_7091_12000" x1="11.799" y1="2.77353" x2="-4.27442" y2="18.9112" gradientUnits="userSpaceOnUse">
<stop stop-color="#00A0FF"/>
<stop offset="0.007" stop-color="#00A1FF"/>
<stop offset="0.26" stop-color="#00BEFF"/>
<stop offset="0.512" stop-color="#00D2FF"/>
<stop offset="0.76" stop-color="#00DFFF"/>
<stop offset="1" stop-color="#00E3FF"/>
</linearGradient>
<linearGradient id="paint1_linear_7091_12000" x1="23.371" y1="13.5872" x2="0.102821" y2="13.5872" gradientUnits="userSpaceOnUse">
<stop stop-color="#FFE000"/>
<stop offset="0.409" stop-color="#FFBD00"/>
<stop offset="0.775" stop-color="#FFA500"/>
<stop offset="1" stop-color="#FF9C00"/>
</linearGradient>
<linearGradient id="paint2_linear_7091_12000" x1="14.7098" y1="15.7852" x2="-7.08596" y2="37.6695" gradientUnits="userSpaceOnUse">
<stop stop-color="#FF3A44"/>
<stop offset="1" stop-color="#C31162"/>
</linearGradient>
<linearGradient id="paint3_linear_7091_12000" x1="-2.14736" y1="-5.39974" x2="7.58592" y2="4.37308" gradientUnits="userSpaceOnUse">
<stop stop-color="#32A071"/>
<stop offset="0.069" stop-color="#2DA771"/>
<stop offset="0.476" stop-color="#15CF74"/>
<stop offset="0.801" stop-color="#06E775"/>
<stop offset="1" stop-color="#00F076"/>
</linearGradient>
</defs>
</svg>
