<svg width="32" height="33" viewBox="0 0 32 33" fill="none" xmlns="http://www.w3.org/2000/svg">
<path d="M11.964 27.1679H19.9847C20.2069 27.1679 20.3949 27.1037 20.5487 26.9755C20.7025 26.8473 20.8136 26.6892 20.882 26.5012L22.4207 20.3729H9.52837L11.0667 26.5012C11.1352 26.6892 11.2463 26.8473 11.4 26.9755C11.5538 27.1037 11.7418 27.1679 11.964 27.1679ZM11.964 28.5012C11.4445 28.5012 10.9856 28.3465 10.5874 28.0372C10.1889 27.7276 9.92049 27.3242 9.78204 26.8269L8.15404 20.3729H23.795L22.1667 26.8269C22.0283 27.3071 21.7599 27.7062 21.3617 28.0242C20.9633 28.3422 20.5043 28.5012 19.9847 28.5012H11.964ZM7.58971 19.0395H24.4104C24.6839 19.0395 24.9062 18.9541 25.077 18.7832C25.2479 18.6123 25.3334 18.3986 25.3334 18.1422V15.8602H6.66671V18.1422C6.66671 18.3986 6.75649 18.6123 6.93604 18.7832C7.11537 18.9541 7.33326 19.0395 7.58971 19.0395ZM15.9744 11.3219C15.9744 9.50985 16.6624 7.96708 18.0384 6.69352C19.4146 5.41997 21.0172 4.69774 22.846 4.52686C22.658 6.20197 21.9906 7.66174 20.8437 8.90619C19.6966 10.1506 18.2957 10.937 16.641 11.2652V14.5269H26.6667V18.1422C26.6667 18.756 26.444 19.2812 25.9987 19.7179C25.5534 20.1545 25.0239 20.3729 24.4104 20.3729H7.58971C6.97615 20.3729 6.44671 20.1545 6.00137 19.7179C5.55604 19.2812 5.33337 18.756 5.33337 18.1422V14.5269H15.3077V11.2652C13.653 10.937 12.2522 10.155 11.105 8.91919C9.95815 7.68319 9.29071 6.21908 9.10271 4.52686C10.9147 4.69774 12.5129 5.42419 13.8974 6.70619C15.282 7.98841 15.9744 9.52697 15.9744 11.3219Z" fill="#096C76"/>
</svg>
