<svg width="32" height="33" viewBox="0 0 32 33" fill="none" xmlns="http://www.w3.org/2000/svg">
<path d="M10.7673 23.0651C10.4762 23.0651 10.2329 22.9667 10.0373 22.7698C9.84156 22.5729 9.74367 22.3289 9.74367 22.0378C9.74367 21.7467 9.84211 21.5032 10.039 21.3075C10.2359 21.1117 10.4799 21.0138 10.771 21.0138C11.0621 21.0138 11.3056 21.1124 11.5013 21.3095C11.6971 21.5064 11.795 21.7504 11.795 22.0415C11.795 22.3326 11.6964 22.576 11.4993 22.7718C11.3024 22.9674 11.0584 23.0651 10.7673 23.0651ZM15.9983 23.0651C15.7072 23.0651 15.4638 22.9667 15.268 22.7698C15.0722 22.5729 14.9743 22.3289 14.9743 22.0378C14.9743 21.7467 15.0728 21.5032 15.2697 21.3075C15.4666 21.1117 15.7106 21.0138 16.0017 21.0138C16.2928 21.0138 16.5362 21.1124 16.732 21.3095C16.9278 21.5064 17.0257 21.7504 17.0257 22.0415C17.0257 22.3326 16.9272 22.576 16.7303 22.7718C16.5334 22.9674 16.2894 23.0651 15.9983 23.0651ZM21.229 23.0651C20.9379 23.0651 20.6944 22.9667 20.4987 22.7698C20.3029 22.5729 20.205 22.3289 20.205 22.0378C20.205 21.7467 20.3036 21.5032 20.5007 21.3075C20.6976 21.1117 20.9416 21.0138 21.2327 21.0138C21.5238 21.0138 21.7671 21.1124 21.9627 21.3095C22.1584 21.5064 22.2563 21.7504 22.2563 22.0415C22.2563 22.3326 22.1579 22.576 21.961 22.7718C21.7641 22.9674 21.5201 23.0651 21.229 23.0651ZM8 17.8345V16.5011C8 14.402 8.70856 12.5926 10.1257 11.0728C11.5428 9.55325 13.2787 8.70625 15.3333 8.53181V5.83447H16.6667V8.53181C18.7213 8.70625 20.4572 9.55325 21.8743 11.0728C23.2914 12.5926 24 14.402 24 16.5011V17.8345H8ZM9.33333 16.5011H22.6667C22.6667 14.6567 22.0167 13.0845 20.7167 11.7845C19.4167 10.4845 17.8444 9.83447 16 9.83447C14.1556 9.83447 12.5833 10.4845 11.2833 11.7845C9.98333 13.0845 9.33333 14.6567 9.33333 16.5011ZM10.7673 26.9628C10.4762 26.9628 10.2329 26.8642 10.0373 26.6671C9.84156 26.4702 9.74367 26.2262 9.74367 25.9351C9.74367 25.644 9.84211 25.4007 10.039 25.2051C10.2359 25.0094 10.4799 24.9115 10.771 24.9115C11.0621 24.9115 11.3056 25.0099 11.5013 25.2068C11.6971 25.4037 11.795 25.6477 11.795 25.9388C11.795 26.2299 11.6964 26.4734 11.4993 26.6691C11.3024 26.8649 11.0584 26.9628 10.7673 26.9628ZM15.9983 26.9628C15.7072 26.9628 15.4638 26.8642 15.268 26.6671C15.0722 26.4702 14.9743 26.2262 14.9743 25.9351C14.9743 25.644 15.0728 25.4007 15.2697 25.2051C15.4666 25.0094 15.7106 24.9115 16.0017 24.9115C16.2928 24.9115 16.5362 25.0099 16.732 25.2068C16.9278 25.4037 17.0257 25.6477 17.0257 25.9388C17.0257 26.2299 16.9272 26.4734 16.7303 26.6691C16.5334 26.8649 16.2894 26.9628 15.9983 26.9628ZM21.229 26.9628C20.9379 26.9628 20.6944 26.8642 20.4987 26.6671C20.3029 26.4702 20.205 26.2262 20.205 25.9351C20.205 25.644 20.3036 25.4007 20.5007 25.2051C20.6976 25.0094 20.9416 24.9115 21.2327 24.9115C21.5238 24.9115 21.7671 25.0099 21.9627 25.2068C22.1584 25.4037 22.2563 25.6477 22.2563 25.9388C22.2563 26.2299 22.1579 26.4734 21.961 26.6691C21.7641 26.8649 21.5201 26.9628 21.229 26.9628Z" fill="#096C76"/>
</svg>
