<svg width="49" height="48" viewBox="0 0 49 48" fill="none" xmlns="http://www.w3.org/2000/svg">
<path d="M15.8238 44C14.9288 44 14.1664 43.6853 13.5368 43.056C12.9074 42.4263 12.5928 41.664 12.5928 40.769V7.231C12.5928 6.31033 12.9011 5.54167 13.5178 4.925C14.1344 4.30833 14.9031 4 15.8238 4H33.5158C34.4108 4 35.1729 4.31467 35.8023 4.944C36.4319 5.57367 36.7468 6.336 36.7468 7.231V13.6615C37.2441 13.7155 37.6761 13.922 38.0428 14.281C38.4094 14.6397 38.5928 15.0717 38.5928 15.577V19.1155C38.5928 19.6205 38.4094 20.0525 38.0428 20.4115C37.6761 20.7705 37.2441 20.977 36.7468 21.031V40.769C36.7468 41.664 36.4319 42.4263 35.8023 43.056C35.1729 43.6853 34.4108 44 33.5158 44H15.8238ZM15.8238 42H33.5158C33.8748 42 34.1696 41.8847 34.4003 41.654C34.6313 41.423 34.7468 41.128 34.7468 40.769V7.231C34.7468 6.872 34.6313 6.577 34.4003 6.346C34.1696 6.11533 33.8748 6 33.5158 6H15.8238C15.4648 6 15.1698 6.11533 14.9388 6.346C14.7081 6.577 14.5928 6.872 14.5928 7.231V40.769C14.5928 41.128 14.7081 41.423 14.9388 41.654C15.1698 41.8847 15.4648 42 15.8238 42ZM24.6698 12.6155C25.1081 12.6155 25.4741 12.4687 25.7678 12.175C26.0614 11.8813 26.2083 11.5153 26.2083 11.077C26.2083 10.6383 26.0614 10.2723 25.7678 9.979C25.4741 9.68533 25.1081 9.5385 24.6698 9.5385C24.2311 9.5385 23.8651 9.68533 23.5718 9.979C23.2781 10.2723 23.1313 10.6383 23.1313 11.077C23.1313 11.5153 23.2781 11.8813 23.5718 12.175C23.8651 12.4687 24.2311 12.6155 24.6698 12.6155Z" fill="#096C76"/>
</svg>
