<svg width="32" height="33" viewBox="0 0 32 33" fill="none" xmlns="http://www.w3.org/2000/svg">
<path d="M17.333 27.8345V26.5011H26.6663V27.8345H17.333ZM7.90465 12.8088H12.9227V7.98847C12.9227 7.74914 12.8458 7.55247 12.692 7.39847C12.5382 7.24469 12.3417 7.16781 12.1023 7.16781H10.9047C10.7338 7.16781 10.5842 7.21058 10.456 7.29614C10.3278 7.38147 10.2295 7.50114 10.1613 7.65514L7.90465 12.8088ZM21.333 24.1421V11.2705C21.333 10.7216 21.1369 10.251 20.7447 9.85881C20.3522 9.46658 19.8817 9.27047 19.333 9.27047H14.256V13.0651C14.256 13.3703 14.1528 13.626 13.9463 13.8325C13.7401 14.0389 13.4843 14.1421 13.179 14.1421H7.51232C7.10899 14.1421 6.80387 13.9806 6.59699 13.6575C6.3901 13.3344 6.36965 12.9934 6.53565 12.6345L8.93299 7.12681C9.12099 6.72347 9.38932 6.40725 9.73799 6.17814C10.0867 5.94903 10.4755 5.83447 10.9047 5.83447H12.1023C12.6874 5.83447 13.1884 6.04003 13.6053 6.45114C14.022 6.86225 14.2389 7.35758 14.256 7.93714H19.333C20.259 7.93714 21.046 8.26114 21.694 8.90914C22.3422 9.55736 22.6663 10.3445 22.6663 11.2705V24.1421H21.333Z" fill="#096C76"/>
</svg>
