<svg width="43" height="43" viewBox="0 0 43 43" fill="none" xmlns="http://www.w3.org/2000/svg">
<path d="M19.8763 37.4734C18.9252 37.4734 18.0194 37.2759 17.159 36.881C16.2986 36.4861 15.5868 35.9118 15.0236 35.1581L6.7312 24.1835L7.19233 23.6786C7.48399 23.3577 7.83064 23.1615 8.23226 23.0897C8.63389 23.018 9.01641 23.0887 9.37983 23.3019L14.6701 25.9098V12.5696C14.6701 12.3217 14.7541 12.1139 14.9221 11.9461C15.0901 11.7784 15.2982 11.6946 15.5464 11.6946C15.7946 11.6946 16.004 11.7784 16.1746 11.9461C16.345 12.1139 16.4301 12.3217 16.4301 12.5696V28.8783L10.1673 25.7821L16.5347 34.1921C16.934 34.7104 17.4298 35.0951 18.0222 35.3463C18.6146 35.5977 19.2326 35.7234 19.8763 35.7234H27.425C28.6567 35.7234 29.6994 35.3022 30.5531 34.4599C31.4068 33.6173 31.8336 32.5801 31.8336 31.3484V25.156C31.8336 24.4505 31.5949 23.859 31.1175 23.3815C30.6403 22.9044 30.0489 22.6658 29.3434 22.6658H21.2763V20.9158H29.3434C30.5211 20.9158 31.5223 21.328 32.3468 22.1526C33.1714 22.9771 33.5836 23.9783 33.5836 25.156V31.3462C33.5836 33.0484 32.9806 34.495 31.7746 35.6862C30.5685 36.8777 29.1187 37.4734 27.425 37.4734H19.8763ZM9.49095 16.0696C9.17916 15.5402 8.94349 14.9806 8.78395 14.3909C8.6247 13.8011 8.54508 13.194 8.54508 12.5696C8.54508 10.6198 9.22437 8.96575 10.583 7.60745C11.9415 6.24887 13.5956 5.56958 15.5451 5.56958C17.4949 5.56958 19.1491 6.24887 20.5076 7.60745C21.8659 8.96575 22.5451 10.6183 22.5451 12.5652C22.5451 13.1984 22.4655 13.8084 22.3062 14.3953C22.147 14.9821 21.9114 15.5402 21.5996 16.0696L20.0951 15.1946C20.3284 14.7862 20.5034 14.3706 20.6201 13.9477C20.7367 13.5248 20.7951 13.0654 20.7951 12.5696C20.7951 11.1112 20.2847 9.87166 19.2638 8.85083C18.243 7.83 17.0034 7.31958 15.5451 7.31958C14.0867 7.31958 12.8472 7.83 11.8263 8.85083C10.8055 9.87166 10.2951 11.1112 10.2951 12.5696C10.2951 13.0654 10.3534 13.5248 10.4701 13.9477C10.5867 14.3706 10.7617 14.7862 10.9951 15.1946L9.49095 16.0696Z" fill="#096C76"/>
</svg>
