<svg width="33" height="33" viewBox="0 0 33 33" fill="none" xmlns="http://www.w3.org/2000/svg">
<path d="M5.95938 29.1679C5.03427 29.1679 4.24694 28.8441 3.59738 28.1966C2.94782 27.549 2.62305 26.7627 2.62305 25.8376C2.62305 24.9124 2.94682 24.1251 3.59438 23.4756C4.24194 22.826 5.02827 22.5012 5.95338 22.5012C6.87849 22.5012 7.66582 22.825 8.31538 23.4726C8.96494 24.1201 9.28971 24.9064 9.28971 25.8316C9.28971 26.7567 8.96594 27.544 8.31838 28.1936C7.67083 28.8431 6.88449 29.1679 5.95938 29.1679ZM5.95638 27.8346C6.50505 27.8346 6.9756 27.6384 7.36805 27.2462C7.76027 26.8538 7.95638 26.3832 7.95638 25.8346C7.95638 25.2859 7.76027 24.8153 7.36805 24.4229C6.9756 24.0307 6.50505 23.8346 5.95638 23.8346C5.40771 23.8346 4.93716 24.0307 4.54471 24.4229C4.15249 24.8153 3.95638 25.2859 3.95638 25.8346C3.95638 26.3832 4.15249 26.8538 4.54471 27.2462C4.93716 27.6384 5.40771 27.8346 5.95638 27.8346ZM10.9564 29.1679C11.1137 28.9388 11.2398 28.7187 11.3347 28.5076C11.4296 28.2964 11.5155 28.0721 11.5924 27.8346H14.9307V17.8346C14.9307 16.9179 14.6044 16.1332 13.9517 15.4806C13.2988 14.8277 12.514 14.5012 11.5974 14.5012H5.28971V19.8859C5.07949 19.903 4.85338 19.9346 4.61138 19.9806C4.3696 20.0268 4.15127 20.0876 3.95638 20.1629V13.1679H7.95638V7.96789C7.95638 6.44278 8.48605 5.15033 9.54538 4.09055C10.6047 3.031 11.8967 2.50122 13.4214 2.50122C14.5303 2.50122 15.5403 2.80166 16.4514 3.40255C17.3625 4.00344 18.0283 4.81067 18.4487 5.82422L27.7537 27.8346H30.623V29.1679H22.623V27.8346H26.3154L17.246 6.37822C16.9112 5.59689 16.4022 4.97767 15.719 4.52055C15.0362 4.06322 14.2744 3.83455 13.4337 3.83455C12.2779 3.83455 11.2983 4.23622 10.4947 5.03955C9.69138 5.84311 9.28971 6.81922 9.28971 7.96789V13.1679H11.5974C12.8932 13.1679 13.9948 13.6218 14.9024 14.5296C15.8102 15.4371 16.264 16.5388 16.264 17.8346V29.1679H10.9564Z" fill="#096C76"/>
</svg>
