<svg width="33" height="33" viewBox="0 0 33 33" fill="none" xmlns="http://www.w3.org/2000/svg">
<path d="M8.11036 27.1678C7.51369 27.1678 7.00547 26.958 6.58569 26.5385C6.16614 26.1187 5.95636 25.6105 5.95636 25.0138V7.98847C5.95636 7.39181 6.16614 6.88358 6.58569 6.46381C7.00547 6.04425 7.51369 5.83447 8.11036 5.83447H25.1357C25.7324 5.83447 26.2406 6.04425 26.6604 6.46381C27.0799 6.88358 27.2897 7.39181 27.2897 7.98847V25.0138C27.2897 25.6105 27.0799 26.1187 26.6604 26.5385C26.2406 26.958 25.7324 27.1678 25.1357 27.1678H8.11036ZM17.2897 17.1678V25.8345H25.1357C25.375 25.8345 25.5717 25.7576 25.7257 25.6038C25.8795 25.4498 25.9564 25.2531 25.9564 25.0138V17.1678H17.2897ZM17.2897 15.8345H25.9564V7.98847C25.9564 7.74914 25.8795 7.55247 25.7257 7.39847C25.5717 7.24469 25.375 7.16781 25.1357 7.16781H17.2897V15.8345ZM15.9564 15.8345V7.16781H8.11036C7.87103 7.16781 7.67436 7.24469 7.52036 7.39847C7.36658 7.55247 7.28969 7.74914 7.28969 7.98847V15.8345H15.9564ZM15.9564 17.1678H7.28969V25.0138C7.28969 25.2531 7.36658 25.4498 7.52036 25.6038C7.67436 25.7576 7.87103 25.8345 8.11036 25.8345H15.9564V17.1678Z" fill="#096C76"/>
</svg>
